<svg width="320" height="320" viewBox="0 0 320 320" fill="none" xmlns="http://www.w3.org/2000/svg">
<path d="M61 210.538H106.161V149.247C106.161 125.493 125.418 106.237 149.172 106.237H211.538L243.796 60H104.011C80.2566 60 61 79.2566 61 103.011V210.538Z" fill="black"/>
<path d="M258.849 109.462H213.688V170.753C213.688 194.507 194.432 213.763 170.677 213.763H108.312L76.0538 260H215.839C239.593 260 258.849 240.743 258.849 216.989V109.462Z" fill="black"/>
<path d="M61 210.538H106.161V149.247C106.161 125.493 125.418 106.237 149.172 106.237H211.538L243.796 60H104.011C80.2566 60 61 79.2566 61 103.011V210.538Z" stroke="black"/>
<path d="M258.849 109.462H213.688V170.753C213.688 194.507 194.432 213.763 170.677 213.763H108.312L76.0538 260H215.839C239.593 260 258.849 240.743 258.849 216.989V109.462Z" stroke="black"/>
</svg>
