<svg width="320" height="320" viewBox="0 0 320 320" fill="none" xmlns="http://www.w3.org/2000/svg">
<path d="M119.619 259.474H60V179.982C92.9264 179.982 119.619 206.674 119.619 239.601V259.474Z" fill="black"/>
<path d="M259.006 198.116L259.286 257.734H179.515C179.515 224.969 205.995 198.365 238.759 198.211L259.006 198.116Z" fill="black"/>
<path d="M60.2799 119.992L60 60.3737L139.77 60.3737C139.77 93.1385 113.291 119.743 80.5264 119.897L60.2799 119.992Z" fill="black"/>
<path d="M200.381 60H260V139.491C227.074 139.491 200.381 112.799 200.381 79.8729V60Z" fill="black"/>
<path d="M119.619 259.474H60V179.982C92.9264 179.982 119.619 206.674 119.619 239.601V259.474Z" stroke="black"/>
<path d="M259.006 198.116L259.286 257.734H179.515C179.515 224.969 205.995 198.365 238.759 198.211L259.006 198.116Z" stroke="black"/>
<path d="M60.2799 119.992L60 60.3737L139.77 60.3737C139.77 93.1385 113.291 119.743 80.5264 119.897L60.2799 119.992Z" stroke="black"/>
<path d="M200.381 60H260V139.491C227.074 139.491 200.381 112.799 200.381 79.8729V60Z" stroke="black"/>
</svg>
