<svg width="320" height="320" viewBox="0 0 320 320" fill="none" xmlns="http://www.w3.org/2000/svg">
<path d="M141.647 60L125.593 65.3512L144.322 115.518C149.824 128.522 168.252 128.522 173.754 115.518L193.152 65.3512L177.098 60L159.038 104.816L141.647 60Z" fill="black"/>
<path d="M65.3925 126.009L62 142.588L114.811 151.452C128.823 153.189 138.037 137.229 129.526 125.963L95.7793 84.0804L83.1183 95.3076L112.9 133.356L65.3925 126.009Z" fill="black"/>
<path d="M235.903 95.3074L223.242 84.0803L189.161 125.384C180.65 136.65 189.864 152.609 203.876 150.872L257.022 142.588L253.629 126.009L205.787 132.777L235.903 95.3074Z" fill="black"/>
<path d="M83.1183 224.672L95.7793 235.899L129.861 194.595C138.371 183.329 129.157 167.37 115.145 169.107L62 177.391L65.3925 193.97L113.234 187.202L83.1183 224.672Z" fill="black"/>
<path d="M177.098 260L193.152 254.649L174.423 204.482C168.921 191.478 150.493 191.478 144.991 204.482L125.593 254.649L141.647 260L159.707 215.184L177.098 260Z" fill="black"/>
<path d="M253.629 193.97L257.022 177.391L204.211 168.528C190.199 166.79 180.985 182.75 189.495 194.016L223.242 235.899L235.903 224.672L206.122 186.623L253.629 193.97Z" fill="black"/>
<path d="M141.647 60L125.593 65.3512L144.322 115.518C149.824 128.522 168.252 128.522 173.754 115.518L193.152 65.3512L177.098 60L159.038 104.816L141.647 60Z" stroke="black"/>
<path d="M65.3925 126.009L62 142.588L114.811 151.452C128.823 153.189 138.037 137.229 129.526 125.963L95.7793 84.0804L83.1183 95.3076L112.9 133.356L65.3925 126.009Z" stroke="black"/>
<path d="M235.903 95.3074L223.242 84.0803L189.161 125.384C180.65 136.65 189.864 152.609 203.876 150.872L257.022 142.588L253.629 126.009L205.787 132.777L235.903 95.3074Z" stroke="black"/>
<path d="M83.1183 224.672L95.7793 235.899L129.861 194.595C138.371 183.329 129.157 167.37 115.145 169.107L62 177.391L65.3925 193.97L113.234 187.202L83.1183 224.672Z" stroke="black"/>
<path d="M177.098 260L193.152 254.649L174.423 204.482C168.921 191.478 150.493 191.478 144.991 204.482L125.593 254.649L141.647 260L159.707 215.184L177.098 260Z" stroke="black"/>
<path d="M253.629 193.97L257.022 177.391L204.211 168.528C190.199 166.79 180.985 182.75 189.495 194.016L223.242 235.899L235.903 224.672L206.122 186.623L253.629 193.97Z" stroke="black"/>
</svg>
