<svg width="320" height="320" viewBox="0 0 320 320" fill="none" xmlns="http://www.w3.org/2000/svg">
<path d="M219.538 64.3425L60 64C60.1767 108.679 96.3348 144.864 141.013 145.073L219.26 145.441C241.655 145.546 259.894 127.477 260 105.082C260.105 82.6473 241.973 64.3907 219.538 64.3425Z" fill="black"/>
<path d="M219.507 175.085L134.773 175.032L134.787 193.406C134.812 227.878 162.679 255.856 197.151 256.018L219.291 256.122C241.669 256.227 259.894 238.172 259.999 215.794C260.105 193.352 241.949 175.1 219.507 175.085Z" fill="black"/>
<path d="M219.538 64.3425L60 64C60.1767 108.679 96.3348 144.864 141.013 145.073L219.26 145.441C241.655 145.546 259.894 127.477 260 105.082C260.105 82.6473 241.973 64.3907 219.538 64.3425Z" stroke="black"/>
<path d="M219.507 175.085L134.773 175.032L134.787 193.406C134.812 227.878 162.679 255.856 197.151 256.018L219.291 256.122C241.669 256.227 259.894 238.172 259.999 215.794C260.105 193.352 241.949 175.1 219.507 175.085Z" stroke="black"/>
</svg>
