<svg width="320" height="320" viewBox="0 0 320 320" fill="none" xmlns="http://www.w3.org/2000/svg">
<path d="M260 160C260 215.228 215.228 260 160 260C104.772 260 60 215.228 60 160C60 104.772 104.772 60 160 60C215.228 60 260 104.772 260 160Z" fill="black"/>
<path d="M152.813 182.121L152.651 121.429C134.575 121.577 120 136.273 120 154.349V182.165C120 191.226 127.345 198.571 136.407 198.571C145.485 198.571 152.837 191.199 152.813 182.121Z" fill="white"/>
<path d="M198.527 182.121L198.365 121.429C180.289 121.577 165.714 136.273 165.714 154.349V182.165C165.714 191.226 173.06 198.571 182.121 198.571C191.199 198.571 198.552 191.199 198.527 182.121Z" fill="white"/>
<path d="M260 160C260 215.228 215.228 260 160 260C104.772 260 60 215.228 60 160C60 104.772 104.772 60 160 60C215.228 60 260 104.772 260 160Z" stroke="white"/>
<path d="M152.813 182.121L152.651 121.429C134.575 121.577 120 136.273 120 154.349V182.165C120 191.226 127.345 198.571 136.407 198.571C145.485 198.571 152.837 191.199 152.813 182.121Z" stroke="white"/>
<path d="M198.527 182.121L198.365 121.429C180.289 121.577 165.714 136.273 165.714 154.349V182.165C165.714 191.226 173.06 198.571 182.121 198.571C191.199 198.571 198.552 191.199 198.527 182.121Z" stroke="white"/>
</svg>
