<svg width="320" height="320" viewBox="0 0 320 320" fill="none" xmlns="http://www.w3.org/2000/svg">
<path d="M215.556 171.111C240.102 171.111 260 191.01 260 215.556C260 240.102 240.102 260 215.556 260C215.556 215.556 101.111 240.102 101.111 215.556C101.111 191.01 215.556 215.556 215.556 171.111Z" fill="black"/>
<path d="M104.444 171.111C128.99 171.111 148.889 191.01 148.889 215.556C148.889 240.102 128.99 260 104.444 260C79.8985 260 60 240.102 60 215.556C60 191.01 79.8985 171.111 104.444 171.111Z" fill="black"/>
<path d="M215.556 60C240.102 60 260 79.8985 260 104.444C260 128.99 240.102 148.889 215.556 148.889C191.01 148.889 171.111 128.99 171.111 104.444C171.111 79.8985 191.01 60 215.556 60Z" fill="black"/>
<path d="M104.444 60C104.444 104.444 218.889 79.8985 218.889 104.444C218.889 128.99 104.444 104.444 104.444 148.889C79.8985 148.889 60 128.99 60 104.444C60 79.8985 79.8985 60 104.444 60Z" fill="black"/>
</svg>
