<svg width="320" height="320" viewBox="0 0 320 320" fill="none" xmlns="http://www.w3.org/2000/svg">
<path d="M188.72 160.36C188.72 195.905 159.905 224.72 124.36 224.72C88.8149 224.72 60 195.905 60 160.36C60 124.815 88.8149 96 124.36 96C159.905 96 188.72 124.815 188.72 160.36Z" fill="black"/>
<path d="M230.512 223.884L202.093 191.286C232.378 181.79 232.378 138.93 202.093 129.434L230.512 96C269.722 129.546 269.937 190.591 230.512 223.884Z" fill="black"/>
<path d="M155.286 159.524C155.286 176.142 141.44 189.614 124.36 189.614C107.28 189.614 93.4337 176.142 93.4337 159.524C93.4337 142.906 107.28 129.434 124.36 129.434C141.44 129.434 155.286 142.906 155.286 159.524Z" fill="white"/>
</svg>
