<svg width="320" height="320" viewBox="0 0 320 320" fill="none" xmlns="http://www.w3.org/2000/svg">
<path d="M65.2221 133L60 138.222L108.304 186.526L156.608 138.222L151.386 133C127.593 156.794 89.0156 156.794 65.2221 133Z" fill="black"/>
<path d="M168.614 133L163.392 138.222L211.696 186.526L260 138.222L254.778 133C230.984 156.794 192.407 156.794 168.614 133Z" fill="black"/>
<path d="M65.2221 133L60 138.222L108.304 186.526L156.608 138.222L151.386 133C127.593 156.794 89.0156 156.794 65.2221 133Z" stroke="black"/>
<path d="M168.614 133L163.392 138.222L211.696 186.526L260 138.222L254.778 133C230.984 156.794 192.407 156.794 168.614 133Z" stroke="black"/>
</svg>
