<svg width="320" height="320" viewBox="0 0 320 320" fill="none" xmlns="http://www.w3.org/2000/svg">
<path d="M121.002 112.088C117.671 109.474 112.838 109.428 109.844 112.422L160 162.578L210.156 112.422C207.162 109.428 202.329 109.474 198.998 112.088C176.16 130.01 143.84 130.01 121.002 112.088Z" fill="black"/>
<path d="M71.1587 161.932C67.827 159.317 62.9946 159.271 60 162.266L110.156 212.422L160.312 162.266C157.318 159.271 152.485 159.317 149.154 161.932C126.317 179.854 93.9958 179.854 71.1587 161.932Z" fill="black"/>
<path d="M170.846 161.932C167.515 159.317 162.682 159.271 159.688 162.266L209.844 212.422L260 162.266C257.005 159.271 252.173 159.317 248.841 161.932C226.004 179.854 193.683 179.854 170.846 161.932Z" fill="black"/>
<path d="M121.002 112.088C117.671 109.474 112.838 109.428 109.844 112.422L160 162.578L210.156 112.422C207.162 109.428 202.329 109.474 198.998 112.088C176.16 130.01 143.84 130.01 121.002 112.088Z" stroke="black"/>
<path d="M71.1587 161.932C67.827 159.317 62.9946 159.271 60 162.266L110.156 212.422L160.312 162.266C157.318 159.271 152.485 159.317 149.154 161.932C126.317 179.854 93.9958 179.854 71.1587 161.932Z" stroke="black"/>
<path d="M170.846 161.932C167.515 159.317 162.682 159.271 159.688 162.266L209.844 212.422L260 162.266C257.005 159.271 252.173 159.317 248.841 161.932C226.004 179.854 193.683 179.854 170.846 161.932Z" stroke="black"/>
</svg>
