<svg width="320" height="320" viewBox="0 0 320 320" fill="none" xmlns="http://www.w3.org/2000/svg">
<path d="M148.953 133.084V60L104.765 60L110.066 90.4626C112.017 101.676 102.262 111.433 91.0482 109.484L60.5765 104.188L60.5764 149.529L132.508 149.529C141.59 149.529 148.953 142.167 148.953 133.084Z" fill="black"/>
<path d="M133.084 169.884H60L60 214.073L90.4672 208.774C101.681 206.824 111.437 216.58 109.487 227.794L104.188 258.261L149.529 258.261L149.529 186.329C149.529 177.247 142.167 169.884 133.084 169.884Z" fill="black"/>
<path d="M171.047 186.916V260H215.235L209.939 229.534C207.99 218.322 217.746 208.567 228.958 210.516L259.423 215.812L259.424 170.471L187.492 170.471C178.41 170.471 171.047 177.833 171.047 186.916Z" fill="black"/>
<path d="M186.916 150.116H260V105.927L229.539 111.226C218.327 113.176 208.57 103.422 210.518 92.2094L215.812 61.7394L170.471 61.7393L170.471 133.671C170.471 142.753 177.833 150.116 186.916 150.116Z" fill="black"/>
<path d="M148.953 133.084V60L104.765 60L110.066 90.4626C112.017 101.676 102.262 111.433 91.0482 109.484L60.5765 104.188L60.5764 149.529L132.508 149.529C141.59 149.529 148.953 142.167 148.953 133.084Z" stroke="black"/>
<path d="M133.084 169.884H60L60 214.073L90.4672 208.774C101.681 206.824 111.437 216.58 109.487 227.794L104.188 258.261L149.529 258.261L149.529 186.329C149.529 177.247 142.167 169.884 133.084 169.884Z" stroke="black"/>
<path d="M171.047 186.916V260H215.235L209.939 229.534C207.99 218.322 217.746 208.567 228.958 210.516L259.423 215.812L259.424 170.471L187.492 170.471C178.41 170.471 171.047 177.833 171.047 186.916Z" stroke="black"/>
<path d="M186.916 150.116H260V105.927L229.539 111.226C218.327 113.176 208.57 103.422 210.518 92.2094L215.812 61.7394L170.471 61.7393L170.471 133.671C170.471 142.753 177.833 150.116 186.916 150.116Z" stroke="black"/>
</svg>
