<svg width="320" height="320" viewBox="0 0 320 320" fill="none" xmlns="http://www.w3.org/2000/svg">
<path d="M220.712 172.714L260 117.09C235.25 135.249 203.428 140.778 174.003 132.032L120.067 116L79.4238 173.541C105.236 155.996 137.396 150.529 167.555 158.56L220.712 172.714Z" fill="black"/>
<path d="M201.288 203.655L215.147 182.653L167.07 168.114C161.992 166.578 156.795 165.463 151.534 164.781C119.232 160.594 86.9956 172.976 65.8025 197.711L60 204.483L201.288 203.655Z" fill="black"/>
<path d="M220.712 172.714L260 117.09C235.25 135.249 203.428 140.778 174.003 132.032L120.067 116L79.4238 173.541C105.236 155.996 137.396 150.529 167.555 158.56L220.712 172.714Z" stroke="black"/>
<path d="M201.288 203.655L215.147 182.653L167.07 168.114C161.992 166.578 156.795 165.463 151.534 164.781C119.232 160.594 86.9956 172.976 65.8025 197.711L60 204.483L201.288 203.655Z" stroke="black"/>
</svg>
