<svg width="320" height="320" viewBox="0 0 320 320" fill="none" xmlns="http://www.w3.org/2000/svg">
<path d="M190.501 229.016C188.413 230.069 185.867 229.23 184.813 227.142L144.767 147.742C143.714 145.654 141.167 144.815 139.079 145.868L71.9147 179.743C67.9249 181.755 69.3679 187.774 73.8364 187.758L255.744 187.125C260.213 187.11 261.656 193.128 257.666 195.141L190.501 229.016Z" fill="black"/>
<path d="M129.421 91.4546C131.509 90.4014 134.056 91.2404 135.109 93.3286L175.155 172.729C176.208 174.817 178.755 175.656 180.843 174.603L248.875 140.29C252.869 138.276 251.417 132.249 246.944 132.275L64.2651 133.306C59.7917 133.331 58.3401 127.305 62.3343 125.29L129.421 91.4546Z" fill="black"/>
</svg>
