<svg width="320" height="320" viewBox="0 0 320 320" fill="none" xmlns="http://www.w3.org/2000/svg">
<path d="M199.492 113.555L176.869 77.7086L199.519 61.9431L211.272 107.097L199.492 113.555Z" fill="black"/>
<path d="M219.977 156.639L229.398 114.76L257.011 119.747L233.09 160.479L219.977 156.639Z" fill="black"/>
<path d="M207.383 200.74L243.082 177.657L259.212 201.449L214.023 213.092L207.383 200.74Z" fill="black"/>
<path d="M163.636 221.294L205.516 230.715L200.529 258.328L159.797 234.406L163.636 221.294Z" fill="black"/>
<path d="M119.37 208.388L141.993 244.235L119.342 260L107.589 214.846L119.37 208.388Z" fill="black"/>
<path d="M97.0342 167.391L87.6132 209.271L60 204.284L83.9216 163.552L97.0342 167.391Z" fill="black"/>
<path d="M115.27 121.252L78.6171 144.64L62.2979 120.908L108.57 108.919L115.27 121.252Z" fill="black"/>
<path d="M157.004 97.0342L115.125 87.6132L120.112 60L160.844 83.9216L157.004 97.0342Z" fill="black"/>
<path d="M199.492 113.555L176.869 77.7086L199.519 61.9431L211.272 107.097L199.492 113.555Z" stroke="black"/>
<path d="M219.977 156.639L229.398 114.76L257.011 119.747L233.09 160.479L219.977 156.639Z" stroke="black"/>
<path d="M207.383 200.74L243.082 177.657L259.212 201.449L214.023 213.092L207.383 200.74Z" stroke="black"/>
<path d="M163.636 221.294L205.516 230.715L200.529 258.328L159.797 234.406L163.636 221.294Z" stroke="black"/>
<path d="M119.37 208.388L141.993 244.235L119.342 260L107.589 214.846L119.37 208.388Z" stroke="black"/>
<path d="M97.0342 167.391L87.6132 209.271L60 204.284L83.9216 163.552L97.0342 167.391Z" stroke="black"/>
<path d="M115.27 121.252L78.6171 144.64L62.2979 120.908L108.57 108.919L115.27 121.252Z" stroke="black"/>
<path d="M157.004 97.0342L115.125 87.6132L120.112 60L160.844 83.9216L157.004 97.0342Z" stroke="black"/>
</svg>
