<svg width="320" height="320" viewBox="0 0 320 320" fill="none" xmlns="http://www.w3.org/2000/svg">
<path d="M198.146 94.8432L180.606 67.0502C193.077 58.3703 210.38 64.7658 214.207 79.4699L219.657 100.409C212.142 104.528 202.72 102.09 198.146 94.8432Z" fill="black"/>
<path d="M232.942 141.514L240.232 109.107C255.442 111.854 263.273 128.904 255.446 142.232L244.422 161.003C236.053 158.552 231.028 150.021 232.942 141.514Z" fill="black"/>
<path d="M228.609 198.059L255.764 180.501C264.684 193.658 257.871 211.681 242.477 215.647L222.779 220.722C218.522 212.803 221.058 202.941 228.609 198.059Z" fill="black"/>
<path d="M180.717 233.437L213.123 240.727C210.376 255.937 193.327 263.768 179.999 255.941L161.228 244.917C163.678 236.548 172.209 231.523 180.717 233.437Z" fill="black"/>
<path d="M123.478 228.279L141.018 256.072C128.547 264.752 111.244 258.357 107.417 243.653L101.967 222.714C109.482 218.594 118.904 221.032 123.478 228.279Z" fill="black"/>
<path d="M86.5826 183.98L79.2926 216.386C64.0823 213.639 56.2513 196.589 64.0787 183.261L75.1024 164.491C83.4713 166.941 88.4965 175.472 86.5826 183.98Z" fill="black"/>
<path d="M97.2555 125.046L69.0813 143.024C60.0778 129.931 66.8227 111.872 82.2048 107.886L103.08 102.478C107.364 110.363 104.82 120.219 97.2555 125.046Z" fill="black"/>
<path d="M142.927 85.5826L110.521 78.2926C113.268 63.0823 130.318 55.2513 143.646 63.0787L162.416 74.1024C159.966 82.4713 151.435 87.4965 142.927 85.5826Z" fill="black"/>
<path d="M198.146 94.8432L180.606 67.0502C193.077 58.3703 210.38 64.7658 214.207 79.4699L219.657 100.409C212.142 104.528 202.72 102.09 198.146 94.8432Z" stroke="black"/>
<path d="M232.942 141.514L240.232 109.107C255.442 111.854 263.273 128.904 255.446 142.232L244.422 161.003C236.053 158.552 231.028 150.021 232.942 141.514Z" stroke="black"/>
<path d="M228.609 198.059L255.764 180.501C264.684 193.658 257.871 211.681 242.477 215.647L222.779 220.722C218.522 212.803 221.058 202.941 228.609 198.059Z" stroke="black"/>
<path d="M180.717 233.437L213.123 240.727C210.376 255.937 193.327 263.768 179.999 255.941L161.228 244.917C163.678 236.548 172.209 231.523 180.717 233.437Z" stroke="black"/>
<path d="M123.478 228.279L141.018 256.072C128.547 264.752 111.244 258.357 107.417 243.653L101.967 222.714C109.482 218.594 118.904 221.032 123.478 228.279Z" stroke="black"/>
<path d="M86.5826 183.98L79.2926 216.386C64.0823 213.639 56.2513 196.589 64.0787 183.261L75.1024 164.491C83.4713 166.941 88.4965 175.472 86.5826 183.98Z" stroke="black"/>
<path d="M97.2555 125.046L69.0813 143.024C60.0778 129.931 66.8227 111.872 82.2048 107.886L103.08 102.478C107.364 110.363 104.82 120.219 97.2555 125.046Z" stroke="black"/>
<path d="M142.927 85.5826L110.521 78.2926C113.268 63.0823 130.318 55.2513 143.646 63.0787L162.416 74.1024C159.966 82.4713 151.435 87.4965 142.927 85.5826Z" stroke="black"/>
</svg>
