<svg width="320" height="320" viewBox="0 0 320 320" fill="none" xmlns="http://www.w3.org/2000/svg">
<path d="M144.033 157.275L64.0836 174.577L61.5888 165.035C53.1711 132.839 79.3747 102.096 112.497 105.306L175.672 111.43C178.871 132.665 165.022 152.733 144.033 157.275Z" fill="black"/>
<path d="M111.47 188.819C116.475 199.607 111.787 212.409 101 217.413C90.2124 222.418 77.4105 217.73 72.4057 206.943C67.4009 196.156 72.0886 183.354 82.8758 178.349C93.663 173.345 106.465 178.032 111.47 188.819Z" fill="black"/>
<path d="M175.967 162.143L255.916 144.841L258.411 154.383C266.829 186.579 240.625 217.322 207.503 214.112L144.328 207.989C141.129 186.753 154.978 166.686 175.967 162.143Z" fill="black"/>
<path d="M208.53 130.599C203.525 119.812 208.213 107.01 219 102.005C229.787 97.0002 242.589 101.688 247.594 112.475C252.599 123.262 247.911 136.064 237.124 141.069C226.337 146.074 213.535 141.386 208.53 130.599Z" fill="black"/>
</svg>
