<svg width="320" height="320" viewBox="0 0 320 320" fill="none" xmlns="http://www.w3.org/2000/svg">
<path d="M184.771 165.735L245.338 230.962C250.571 236.597 260 232.895 260 225.204V137.46C260 132.787 256.212 128.998 251.539 128.998H200.066C195.393 128.998 191.605 125.21 191.605 120.537V82.4613C191.605 77.7882 187.816 74 183.143 74H143.4C140.489 74 137.782 75.4968 136.234 77.9625L61.2951 197.334C59.8783 199.591 59.6074 202.383 60.564 204.87L74.586 241.327C75.8428 244.595 78.9823 246.751 82.4833 246.751H113.724C116.565 246.751 119.216 245.326 120.782 242.956L145.773 205.15L171.547 166.775C174.589 162.246 181.059 161.737 184.771 165.735Z" fill="black" stroke="black"/>
</svg>
