<svg width="320" height="320" viewBox="0 0 320 320" fill="none" xmlns="http://www.w3.org/2000/svg">
<path d="M224.241 185.539L223.464 183.559C223.269 183.061 222.558 183.08 222.389 183.587C216.696 200.667 203.293 214.069 186.213 219.763C185.706 219.932 185.688 220.643 186.185 220.838L188.165 221.614C204.158 227.886 216.64 240.791 222.375 256.984C222.556 257.495 223.275 257.505 223.484 257.004C230.249 240.768 243.395 227.622 259.631 220.857C260.131 220.649 260.121 219.929 259.61 219.748C243.418 214.013 230.512 201.531 224.241 185.539Z" fill="black"/>
<path d="M174.904 103.254L168.223 258.124L98.1865 258.088C71.6385 258.075 53.211 231.637 62.3854 206.725L116.052 61L140.832 63.6537C160.857 65.7982 175.771 83.1321 174.904 103.254Z" fill="black"/>
<path d="M224.241 185.539L223.464 183.559C223.269 183.061 222.558 183.08 222.389 183.587C216.696 200.667 203.293 214.069 186.213 219.763C185.706 219.932 185.688 220.643 186.185 220.838L188.165 221.614C204.158 227.886 216.64 240.791 222.375 256.984C222.556 257.495 223.275 257.505 223.484 257.004C230.249 240.768 243.395 227.622 259.631 220.857C260.131 220.649 260.121 219.929 259.61 219.748C243.418 214.013 230.512 201.531 224.241 185.539Z" stroke="black"/>
<path d="M174.904 103.254L168.223 258.124L98.1865 258.088C71.6385 258.075 53.211 231.637 62.3854 206.725L116.052 61L140.832 63.6537C160.857 65.7982 175.771 83.1321 174.904 103.254Z" stroke="black"/>
</svg>
