<svg width="320" height="320" viewBox="0 0 320 320" fill="none" xmlns="http://www.w3.org/2000/svg">
<path d="M163.16 91.0635L162.476 89.3198C162.304 88.8814 161.678 88.8977 161.529 89.3444C156.515 104.385 144.713 116.188 129.672 121.201C129.225 121.35 129.209 121.976 129.647 122.148L131.391 122.832C145.474 128.355 156.466 139.719 161.516 153.979C161.676 154.429 162.309 154.438 162.493 153.997C168.45 139.699 180.027 128.123 194.325 122.165C194.765 121.982 194.756 121.348 194.306 121.189C180.047 116.138 168.682 105.147 163.16 91.0635Z" fill="black"/>
<path d="M230.466 182.889L60 161.978L90.6454 214.307C96.6522 224.564 107.629 230.886 119.515 230.934L257.173 231.494L258.941 224.577C263.961 204.938 250.586 185.357 230.466 182.889Z" fill="black"/>
<path d="M163.16 91.0635L162.476 89.3198C162.304 88.8814 161.678 88.8977 161.529 89.3444C156.515 104.385 144.713 116.188 129.672 121.201C129.225 121.35 129.209 121.976 129.647 122.148L131.391 122.832C145.474 128.355 156.466 139.719 161.516 153.979C161.676 154.429 162.309 154.438 162.493 153.997C168.45 139.699 180.027 128.123 194.325 122.165C194.765 121.982 194.756 121.348 194.306 121.189C180.047 116.138 168.682 105.147 163.16 91.0635Z" stroke="black"/>
<path d="M230.466 182.889L60 161.978L90.6454 214.307C96.6522 224.564 107.629 230.886 119.515 230.934L257.173 231.494L258.941 224.577C263.961 204.938 250.586 185.357 230.466 182.889Z" stroke="black"/>
</svg>
