<svg width="320" height="320" viewBox="0 0 320 320" fill="none" xmlns="http://www.w3.org/2000/svg">
<path d="M161.642 62.8933L160.683 60.4484C160.442 59.8337 159.564 59.8565 159.356 60.4829C152.326 81.5728 135.776 98.1219 114.687 105.152C114.06 105.361 114.037 106.238 114.652 106.479L117.097 107.438C136.844 115.182 152.256 131.117 159.338 151.111C159.561 151.742 160.45 151.755 160.707 151.137C169.061 131.089 185.292 114.857 205.341 106.503C205.958 106.246 205.946 105.357 205.315 105.134C185.321 98.0527 169.386 82.6403 161.642 62.8933Z" fill="black"/>
<path d="M107.438 117.097L106.479 114.652C106.238 114.037 105.361 114.06 105.152 114.687C98.1219 135.776 81.5728 152.326 60.4829 159.356C59.8565 159.564 59.8337 160.442 60.4484 160.683L62.8933 161.642C82.6403 169.386 98.0527 185.321 105.134 205.315C105.357 205.946 106.246 205.958 106.503 205.341C114.857 185.292 131.089 169.061 151.137 160.707C151.755 160.45 151.742 159.561 151.111 159.338C131.117 152.256 115.182 136.844 107.438 117.097Z" fill="black"/>
<path d="M161.642 171.301L160.683 168.856C160.442 168.241 159.564 168.264 159.356 168.89C152.326 189.98 135.776 206.529 114.687 213.559C114.06 213.768 114.037 214.646 114.652 214.887L117.097 215.846C136.844 223.59 152.256 239.525 159.338 259.519C159.561 260.15 160.45 260.162 160.707 259.544C169.061 239.496 185.292 223.264 205.341 214.911C205.958 214.653 205.946 213.765 205.315 213.541C185.321 206.46 169.386 191.048 161.642 171.301Z" fill="black"/>
<path d="M215.846 117.097L214.887 114.652C214.646 114.037 213.768 114.06 213.559 114.687C206.529 135.776 189.98 152.326 168.89 159.356C168.264 159.564 168.241 160.442 168.856 160.683L171.301 161.642C191.048 169.386 206.46 185.321 213.541 205.315C213.765 205.946 214.653 205.958 214.911 205.341C223.264 185.292 239.496 169.061 259.544 160.707C260.162 160.45 260.15 159.561 259.519 159.338C239.525 152.256 223.59 136.844 215.846 117.097Z" fill="black"/>
<path d="M161.642 62.8933L160.683 60.4484C160.442 59.8337 159.564 59.8565 159.356 60.4829C152.326 81.5728 135.776 98.1219 114.687 105.152C114.06 105.361 114.037 106.238 114.652 106.479L117.097 107.438C136.844 115.182 152.256 131.117 159.338 151.111C159.561 151.742 160.45 151.755 160.707 151.137C169.061 131.089 185.292 114.857 205.341 106.503C205.958 106.246 205.946 105.357 205.315 105.134C185.321 98.0527 169.386 82.6403 161.642 62.8933Z" stroke="black"/>
<path d="M107.438 117.097L106.479 114.652C106.238 114.037 105.361 114.06 105.152 114.687C98.1219 135.776 81.5728 152.326 60.4829 159.356C59.8565 159.564 59.8337 160.442 60.4484 160.683L62.8933 161.642C82.6403 169.386 98.0527 185.321 105.134 205.315C105.357 205.946 106.246 205.958 106.503 205.341C114.857 185.292 131.089 169.061 151.137 160.707C151.755 160.45 151.742 159.561 151.111 159.338C131.117 152.256 115.182 136.844 107.438 117.097Z" stroke="black"/>
<path d="M161.642 171.301L160.683 168.856C160.442 168.241 159.564 168.264 159.356 168.89C152.326 189.98 135.776 206.529 114.687 213.559C114.06 213.768 114.037 214.646 114.652 214.887L117.097 215.846C136.844 223.59 152.256 239.525 159.338 259.519C159.561 260.15 160.45 260.162 160.707 259.544C169.061 239.496 185.292 223.264 205.341 214.911C205.958 214.653 205.946 213.765 205.315 213.541C185.321 206.46 169.386 191.048 161.642 171.301Z" stroke="black"/>
<path d="M215.846 117.097L214.887 114.652C214.646 114.037 213.768 114.06 213.559 114.687C206.529 135.776 189.98 152.326 168.89 159.356C168.264 159.564 168.241 160.442 168.856 160.683L171.301 161.642C191.048 169.386 206.46 185.321 213.541 205.315C213.765 205.946 214.653 205.958 214.911 205.341C223.264 185.292 239.496 169.061 259.544 160.707C260.162 160.45 260.15 159.561 259.519 159.338C239.525 152.256 223.59 136.844 215.846 117.097Z" stroke="black"/>
</svg>
