<svg width="320" height="320" viewBox="0 0 320 320" fill="none" xmlns="http://www.w3.org/2000/svg">
<path d="M193.424 126.863L229.287 91L247.533 109.247C255.07 116.783 259.494 126.88 259.928 137.529C261.946 187.086 221.224 227.808 171.667 225.79C161.017 225.357 150.921 220.932 143.385 213.395L125.138 195.149L161 159.286L174.756 173.042C183.709 181.995 198.226 181.995 207.179 173.042C216.133 164.088 216.133 149.572 207.179 140.618L193.424 126.863Z" fill="black"/>
<path d="M126.576 192.947L90.7134 228.81L72.4666 210.563C64.9303 203.027 60.5056 192.93 60.0719 182.281C58.0536 132.724 98.7759 92.0017 148.333 94.0198C158.983 94.4534 169.079 98.8783 176.615 106.415L194.862 124.661L159 160.524L145.244 146.768C136.291 137.815 121.774 137.815 112.821 146.768C103.867 155.722 103.867 170.238 112.821 179.192L126.576 192.947Z" fill="black"/>
<path d="M193.424 126.863L229.287 91L247.533 109.247C255.07 116.783 259.494 126.88 259.928 137.529C261.946 187.086 221.224 227.808 171.667 225.79C161.017 225.357 150.921 220.932 143.385 213.395L125.138 195.149L161 159.286L174.756 173.042C183.709 181.995 198.226 181.995 207.179 173.042C216.133 164.088 216.133 149.572 207.179 140.618L193.424 126.863Z" stroke="black"/>
<path d="M126.576 192.947L90.7134 228.81L72.4666 210.563C64.9303 203.027 60.5056 192.93 60.0719 182.281C58.0536 132.724 98.7759 92.0017 148.333 94.0198C158.983 94.4534 169.079 98.8783 176.615 106.415L194.862 124.661L159 160.524L145.244 146.768C136.291 137.815 121.774 137.815 112.821 146.768C103.867 155.722 103.867 170.238 112.821 179.192L126.576 192.947Z" stroke="black"/>
</svg>
