<svg width="320" height="320" viewBox="0 0 320 320" fill="none" xmlns="http://www.w3.org/2000/svg">
<path d="M60 69.7561C60 64.368 64.368 60 69.7561 60H108.78C114.169 60 118.537 64.368 118.537 69.7561V108.78C118.537 114.169 114.169 118.537 108.78 118.537H69.7561C64.368 118.537 60 114.169 60 108.78V69.7561Z" fill="black"/>
<path d="M79.7463 79.7455C83.5256 75.9662 89.653 75.9662 93.4323 79.7455L134.49 120.803C138.269 124.583 138.269 130.71 134.49 134.489C130.711 138.269 124.583 138.269 120.804 134.489L79.7463 93.4314C75.9671 89.6522 75.9671 83.5248 79.7463 79.7455Z" fill="black"/>
<path d="M147.488 147.488C151.267 143.709 157.395 143.709 161.174 147.488L202.232 188.546C206.011 192.325 206.011 198.452 202.232 202.232C198.453 206.011 192.325 206.011 188.546 202.232L147.488 161.174C143.709 157.395 143.709 151.267 147.488 147.488Z" fill="black"/>
<path d="M111.22 120.976C111.22 115.587 115.587 111.22 120.976 111.22H172.195C177.583 111.22 181.951 115.587 181.951 120.976V172.195C181.951 177.583 177.583 181.951 172.195 181.951H120.976C115.587 181.951 111.22 177.583 111.22 172.195V120.976Z" fill="black"/>
<path d="M177.073 186.829C177.073 181.441 181.441 177.073 186.829 177.073H250.244C255.632 177.073 260 181.441 260 186.829V250.244C260 255.632 255.632 260 250.244 260H186.829C181.441 260 177.073 255.632 177.073 250.244V186.829Z" fill="black"/>
</svg>
