<svg width="320" height="320" viewBox="0 0 320 320" fill="none" xmlns="http://www.w3.org/2000/svg">
<path d="M62.08 164.763C59.3067 161.99 59.3067 157.493 62.08 154.72L82.1661 134.634C84.9395 131.861 89.4359 131.861 92.2092 134.634L112.295 154.72C115.069 157.493 115.069 161.99 112.295 164.763L92.2092 184.849C89.4359 187.623 84.9395 187.623 82.1661 184.849L62.08 164.763Z" fill="black"/>
<path d="M77.3852 159.741C77.3852 155.851 80.539 152.697 84.4295 152.697H126.695C130.585 152.697 133.739 155.851 133.739 159.741C133.739 163.632 130.585 166.785 126.695 166.785H84.4295C80.539 166.785 77.3852 163.632 77.3852 159.741Z" fill="black"/>
<path d="M147.12 159.741C147.12 155.851 150.274 152.697 154.164 152.697H196.43C200.32 152.697 203.474 155.851 203.474 159.741C203.474 163.632 200.32 166.786 196.43 166.786H154.164C150.274 166.786 147.12 163.632 147.12 159.741Z" fill="black"/>
<path d="M114.806 164.763C112.033 161.99 112.033 157.493 114.806 154.72L141.169 128.357C143.943 125.584 148.439 125.584 151.212 128.357L177.575 154.72C180.349 157.493 180.349 161.99 177.575 164.763L151.212 191.126C148.439 193.899 143.943 193.899 141.169 191.126L114.806 164.763Z" fill="black"/>
<path d="M182.597 164.763C179.824 161.99 179.824 157.493 182.597 154.72L215.237 122.08C218.01 119.307 222.507 119.307 225.28 122.08L257.92 154.72C260.693 157.493 260.693 161.99 257.92 164.763L225.28 197.403C222.507 200.176 218.01 200.176 215.237 197.403L182.597 164.763Z" fill="black"/>
</svg>
