<svg width="320" height="320" viewBox="0 0 320 320" fill="none" xmlns="http://www.w3.org/2000/svg">
<path d="M105.804 105.804C111.062 100.546 119.586 100.546 124.843 105.804L181.961 162.922C187.219 168.179 187.219 176.703 181.961 181.961C176.704 187.218 168.179 187.218 162.922 181.961L105.804 124.843C100.547 119.586 100.547 111.061 105.804 105.804Z" fill="black"/>
<path d="M60 78.6046C60 68.3296 68.3296 60 78.6046 60H139.794C150.069 60 158.399 68.3296 158.399 78.6046V139.794C158.399 150.069 150.069 158.399 139.794 158.399H78.6046C68.3296 158.399 60 150.069 60 139.794V78.6046Z" fill="black"/>
<path d="M144.636 163.241C144.636 152.966 152.966 144.636 163.241 144.636H241.395C251.67 144.636 260 152.966 260 163.241V241.395C260 251.67 251.67 260 241.395 260H163.241C152.966 260 144.636 251.67 144.636 241.395V163.241Z" fill="black"/>
</svg>
