<svg width="320" height="320" viewBox="0 0 320 320" fill="none" xmlns="http://www.w3.org/2000/svg">
<path d="M105.804 214.196C111.062 219.454 119.586 219.454 124.843 214.196L181.961 157.078C187.219 151.821 187.219 143.297 181.961 138.039C176.704 132.782 168.179 132.782 162.922 138.039L105.804 195.157C100.547 200.414 100.547 208.939 105.804 214.196Z" fill="black"/>
<path d="M60 241.395C60 251.67 68.3296 260 78.6046 260H139.794C150.069 260 158.399 251.67 158.399 241.395V180.206C158.399 169.931 150.069 161.601 139.794 161.601H78.6046C68.3296 161.601 60 169.931 60 180.206V241.395Z" fill="black"/>
<path d="M144.636 156.759C144.636 167.034 152.966 175.364 163.241 175.364H241.395C251.67 175.364 260 167.034 260 156.759V78.6046C260 68.3296 251.67 60 241.395 60H163.241C152.966 60 144.636 68.3296 144.636 78.6046V156.759Z" fill="black"/>
</svg>
