<svg width="320" height="320" viewBox="0 0 320 320" fill="none" xmlns="http://www.w3.org/2000/svg">
<path d="M164.48 248.803L203.82 213.946C204.445 213.392 204.265 212.374 203.489 212.067C156.408 193.463 156.478 126.795 203.478 107.988C204.256 107.676 204.433 106.651 203.8 106.1L164.477 71.8691C163.316 70.8581 161.634 70.7148 160.318 71.5148L83.7883 118.048C52.0706 137.333 52.0706 183.372 83.7883 202.657L160.298 249.178C161.623 249.984 163.319 249.832 164.48 248.803Z" fill="black"/>
<path d="M260 160.352C260 179.884 244.167 195.718 224.635 195.718C205.103 195.718 189.27 179.884 189.27 160.352C189.27 140.821 205.103 124.987 224.635 124.987C244.167 124.987 260 140.821 260 160.352Z" fill="black"/>
</svg>
