<svg width="320" height="320" viewBox="0 0 320 320" fill="none" xmlns="http://www.w3.org/2000/svg">
<path d="M130.063 91.6087H89.0962L114.36 66.297C117.316 63.3357 121.328 61.6716 125.512 61.6716H145.819V75.8523C145.819 84.5543 138.765 91.6087 130.063 91.6087Z" fill="black"/>
<path d="M89.6742 132.029L60.5087 161.194L60.0015 124.783C59.9423 120.528 61.6062 116.431 64.6149 113.422L78.9827 99.0541L89.6742 109.746C95.8275 115.899 95.8275 125.875 89.6742 132.029Z" fill="black"/>
<path d="M90.6718 187.723V230.265L65.2084 204.144C62.34 201.201 60.7347 197.254 60.7347 193.145V171.966H74.9154C83.6174 171.966 90.6718 179.021 90.6718 187.723Z" fill="black"/>
<path d="M134.591 230.138L163.756 259.303L127.345 259.811C123.09 259.87 118.993 258.206 115.984 255.197L101.616 240.829L112.308 230.138C118.461 223.985 128.437 223.985 134.591 230.138Z" fill="black"/>
<path d="M191.513 228.689H232.479L207.215 254.001C204.26 256.963 200.247 258.627 196.063 258.627H175.756V244.446C175.756 235.744 182.811 228.689 191.513 228.689Z" fill="black"/>
<path d="M230.326 186.409L259.491 157.244L259.998 193.655C260.058 197.91 258.394 202.007 255.385 205.016L241.017 219.384L230.326 208.692C224.173 202.539 224.173 192.563 230.326 186.409Z" fill="black"/>
<path d="M229.328 129.424V88.4575L254.64 113.722C257.601 116.677 259.265 120.69 259.265 124.874V145.181H245.085C236.383 145.181 229.328 138.126 229.328 129.424Z" fill="black"/>
<path d="M186.597 90.6742L157.431 61.5087L193.843 61.0015C198.097 60.9423 202.195 62.6062 205.204 65.6149L219.571 79.9827L208.88 90.6742C202.727 96.8275 192.75 96.8275 186.597 90.6742Z" fill="black"/>
<path d="M130.063 91.6087H89.0962L114.36 66.297C117.316 63.3357 121.328 61.6716 125.512 61.6716H145.819V75.8523C145.819 84.5543 138.765 91.6087 130.063 91.6087Z" stroke="black"/>
<path d="M89.6742 132.029L60.5087 161.194L60.0015 124.783C59.9423 120.528 61.6062 116.431 64.6149 113.422L78.9827 99.0541L89.6742 109.746C95.8275 115.899 95.8275 125.875 89.6742 132.029Z" stroke="black"/>
<path d="M90.6718 187.723V230.265L65.2084 204.144C62.34 201.201 60.7347 197.254 60.7347 193.145V171.966H74.9154C83.6174 171.966 90.6718 179.021 90.6718 187.723Z" stroke="black"/>
<path d="M134.591 230.138L163.756 259.303L127.345 259.811C123.09 259.87 118.993 258.206 115.984 255.197L101.616 240.829L112.308 230.138C118.461 223.985 128.437 223.985 134.591 230.138Z" stroke="black"/>
<path d="M191.513 228.689H232.479L207.215 254.001C204.26 256.963 200.247 258.627 196.063 258.627H175.756V244.446C175.756 235.744 182.811 228.689 191.513 228.689Z" stroke="black"/>
<path d="M230.326 186.409L259.491 157.244L259.998 193.655C260.058 197.91 258.394 202.007 255.385 205.016L241.017 219.384L230.326 208.692C224.173 202.539 224.173 192.563 230.326 186.409Z" stroke="black"/>
<path d="M229.328 129.424V88.4575L254.64 113.722C257.601 116.677 259.265 120.69 259.265 124.874V145.181H245.085C236.383 145.181 229.328 138.126 229.328 129.424Z" stroke="black"/>
<path d="M186.597 90.6742L157.431 61.5087L193.843 61.0015C198.097 60.9423 202.195 62.6062 205.204 65.6149L219.571 79.9827L208.88 90.6742C202.727 96.8275 192.75 96.8275 186.597 90.6742Z" stroke="black"/>
</svg>
