<svg width="320" height="320" viewBox="0 0 320 320" fill="none" xmlns="http://www.w3.org/2000/svg">
<path d="M60 115.692L64.1116 111.58L88.781 136.25L84.6694 140.361L60 115.692Z" fill="black"/>
<path d="M82.4289 101.486L87.192 98.151L105.535 124.348L100.772 127.683L82.4289 101.486Z" fill="black"/>
<path d="M106.091 90.1587L111.361 87.7014L123.648 114.051L118.378 116.508L106.091 90.1587Z" fill="black"/>
<path d="M128.869 83.8273L134.485 82.3223L141.257 107.597L135.641 109.102L128.869 83.8273Z" fill="black"/>
<path d="M154.859 82.5068L160.651 82L162.678 105.17L156.886 105.677L154.859 82.5068Z" fill="black"/>
<path d="M177.924 84.1103L183.717 84.6171L181.943 104.891L176.151 104.384L177.924 84.1103Z" fill="black"/>
<path d="M200.196 90.6195L205.813 92.1244L201.298 108.974L195.681 107.469L200.196 90.6195Z" fill="black"/>
<path d="M219.731 99.8655L225.001 102.323L218.858 115.497L213.588 113.04L219.731 99.8655Z" fill="black"/>
<path d="M238.728 113.761L243.491 117.096L236.821 126.622L232.058 123.287L238.728 113.761Z" fill="black"/>
<path d="M255.299 130.082L259.411 134.194L253.244 140.361L249.132 136.25L255.299 130.082Z" fill="black"/>
<path d="M260 203.38L255.888 207.491L231.219 182.822L235.331 178.71L260 203.38Z" fill="black"/>
<path d="M237.571 217.586L232.808 220.921L214.465 194.724L219.228 191.389L237.571 217.586Z" fill="black"/>
<path d="M213.909 228.913L208.639 231.37L196.352 205.021L201.622 202.564L213.909 228.913Z" fill="black"/>
<path d="M191.131 235.244L185.515 236.749L178.743 211.475L184.359 209.97L191.131 235.244Z" fill="black"/>
<path d="M165.141 236.565L159.349 237.072L157.322 213.902L163.114 213.395L165.141 236.565Z" fill="black"/>
<path d="M142.076 234.961L136.283 234.455L138.057 214.181L143.849 214.688L142.076 234.961Z" fill="black"/>
<path d="M119.804 228.452L114.187 226.947L118.702 210.098L124.319 211.603L119.804 228.452Z" fill="black"/>
<path d="M100.269 219.206L94.999 216.749L101.142 203.574L106.412 206.032L100.269 219.206Z" fill="black"/>
<path d="M81.2719 205.311L76.5089 201.975L83.1791 192.449L87.9422 195.784L81.2719 205.311Z" fill="black"/>
<path d="M64.7007 188.989L60.5891 184.878L66.7565 178.71L70.868 182.822L64.7007 188.989Z" fill="black"/>
</svg>
