<svg width="320" height="320" viewBox="0 0 320 320" fill="none" xmlns="http://www.w3.org/2000/svg">
<path d="M60 60H114.438C137.967 60 157.041 79.0743 157.041 102.604V114.438C157.041 137.967 137.967 157.041 114.438 157.041H102.604C79.0743 157.041 60 137.967 60 114.438V60Z" fill="black"/>
<path d="M260 60H205.562C182.033 60 162.959 79.0743 162.959 102.604V114.438C162.959 137.967 182.033 157.041 205.562 157.041H217.396C240.926 157.041 260 137.967 260 114.438V60Z" fill="black"/>
<path d="M260 260H205.562C182.033 260 162.959 240.926 162.959 217.396V205.562C162.959 182.033 182.033 162.959 205.562 162.959H217.396C240.926 162.959 260 182.033 260 205.562V260Z" fill="black"/>
</svg>
