<svg width="320" height="320" viewBox="0 0 320 320" fill="none" xmlns="http://www.w3.org/2000/svg">
<path d="M260 176.634L251.195 176.991C206.701 178.795 170.895 214.172 168.555 258.64H194.036C197.495 258.64 200.95 258.369 204.367 257.829C234.311 253.102 257.224 228.65 260 198.463V176.634Z" fill="black"/>
<path d="M60 143.006L68.8054 142.649C113.299 140.845 149.105 105.468 151.445 61H125.964C122.505 61 119.05 61.271 115.633 61.8106C85.6894 66.5386 62.7758 90.9897 60 121.177V143.006Z" fill="black"/>
<path d="M165.63 68.6178L165.015 61L198.643 61.59C233.176 63.9143 260 92.604 260 127.216V163.655C209.577 159.226 169.704 119.07 165.63 68.6178Z" fill="black"/>
<path d="M154.37 251.612L154.985 259.23L121.357 258.64C86.8236 256.316 60 227.626 60 193.015V156.575C110.423 161.004 150.296 201.16 154.37 251.612Z" fill="black"/>
<path d="M260 176.634L251.195 176.991C206.701 178.795 170.895 214.172 168.555 258.64H194.036C197.495 258.64 200.95 258.369 204.367 257.829C234.311 253.102 257.224 228.65 260 198.463V176.634Z" stroke="black"/>
<path d="M60 143.006L68.8054 142.649C113.299 140.845 149.105 105.468 151.445 61H125.964C122.505 61 119.05 61.271 115.633 61.8106C85.6894 66.5386 62.7758 90.9897 60 121.177V143.006Z" stroke="black"/>
<path d="M165.63 68.6178L165.015 61L198.643 61.59C233.176 63.9143 260 92.604 260 127.216V163.655C209.577 159.226 169.704 119.07 165.63 68.6178Z" stroke="black"/>
<path d="M154.37 251.612L154.985 259.23L121.357 258.64C86.8236 256.316 60 227.626 60 193.015V156.575C110.423 161.004 150.296 201.16 154.37 251.612Z" stroke="black"/>
</svg>
