<svg width="320" height="320" viewBox="0 0 320 320" fill="none" xmlns="http://www.w3.org/2000/svg">
<path d="M60 83.75C60 70.6332 70.6332 60 83.75 60H113.75C135.841 60 153.75 77.9086 153.75 100V102.308C153.75 134.17 127.92 160 96.0577 160C76.1436 160 60 143.856 60 123.942V83.75Z" fill="black"/>
<path d="M260 236.25C260 249.367 249.367 260 236.25 260H206.25C184.159 260 166.25 242.091 166.25 220V217.692C166.25 185.83 192.08 160 223.942 160C243.856 160 260 176.144 260 196.058V236.25Z" fill="black"/>
<path d="M60 165H86.25C124.91 165 156.25 196.34 156.25 235V260H83.75C70.6332 260 60 249.367 60 236.25V165Z" fill="black"/>
<path d="M260 155H233.75C195.09 155 163.75 123.66 163.75 85V60H236.25C249.367 60 260 70.6332 260 83.75V155Z" fill="black"/>
</svg>
