<svg width="320" height="320" viewBox="0 0 320 320" fill="none" xmlns="http://www.w3.org/2000/svg">
<path d="M133.567 141.204H60.7132L60.7132 185.253L91.0845 179.971C102.263 178.027 111.988 187.753 110.044 198.931L104.763 229.302L149.961 229.302L149.961 157.598C149.961 148.544 142.621 141.204 133.567 141.204Z" fill="black"/>
<path d="M171.411 158.182V231.036H215.46L210.181 200.667C208.238 189.489 217.962 179.765 229.14 181.708L259.509 186.987L259.509 141.789L187.804 141.789C178.75 141.789 171.411 149.128 171.411 158.182Z" fill="black"/>
<path d="M60 89.6393C60 88.734 60.734 88 61.6393 88H258.361C259.266 88 260 88.734 260 89.6393V119.148C260 120.053 259.266 120.787 258.361 120.787H61.6393C60.734 120.787 60 120.053 60 119.148V89.6393Z" fill="black"/>
</svg>
