<svg width="320" height="320" viewBox="0 0 320 320" fill="none" xmlns="http://www.w3.org/2000/svg">
<path d="M96.612 143.399L60 169.082L109.18 203.508L160 245.038L209.727 203.508L260 169.082L223.388 143.399L160 174.546L96.612 143.399Z" fill="black"/>
<path d="M160 74L200.984 130.284L198.892 132.062C185.761 143.224 173.995 155.899 163.841 169.825L160 175.093L156.159 169.825C146.005 155.899 134.239 143.224 121.108 132.062L119.016 130.284L160 74Z" fill="black"/>
<path d="M96.612 143.399L60 169.082L109.18 203.508L160 245.038L209.727 203.508L260 169.082L223.388 143.399L160 174.546L96.612 143.399Z" stroke="black"/>
<path d="M160 74L200.984 130.284L198.892 132.062C185.761 143.224 173.995 155.899 163.841 169.825L160 175.093L156.159 169.825C146.005 155.899 134.239 143.224 121.108 132.062L119.016 130.284L160 74Z" stroke="black"/>
</svg>
