<svg width="320" height="320" viewBox="0 0 320 320" fill="none" xmlns="http://www.w3.org/2000/svg">
<path d="M79.0738 154.217H60V123.783L60.0443 122.262C60.9446 91.3524 85.1309 66.1593 115.978 64H154.565V86.2826C152.001 119.302 127.579 146.482 95.0217 152.552L92.9813 152.932C88.3948 153.787 83.7393 154.217 79.0738 154.217Z" fill="black"/>
<path d="M240.926 154.217H260V123.783L259.956 122.262C259.055 91.3524 234.869 66.1593 204.022 64H165.435V86.2826C167.999 119.302 192.421 146.482 224.978 152.552L227.019 152.932C231.605 153.787 236.261 154.217 240.926 154.217Z" fill="black"/>
<path d="M79.0738 165.087H60V195.522L60.0443 197.042C60.9446 227.952 85.1309 253.145 115.978 255.304H154.565V233.022C152.001 200.003 127.579 172.823 95.0217 166.753L92.9813 166.372C88.3948 165.517 83.7393 165.087 79.0738 165.087Z" fill="black"/>
<path d="M240.926 165.087H260V195.522L259.956 197.042C259.055 227.952 234.869 253.145 204.022 255.304H165.435V233.022C167.999 200.003 192.421 172.823 224.978 166.753L227.019 166.372C231.605 165.517 236.261 165.087 240.926 165.087Z" fill="black"/>
<path d="M79.0738 154.217H60V123.783L60.0443 122.262C60.9446 91.3524 85.1309 66.1593 115.978 64H154.565V86.2826C152.001 119.302 127.579 146.482 95.0217 152.552L92.9813 152.932C88.3948 153.787 83.7393 154.217 79.0738 154.217Z" stroke="black"/>
<path d="M240.926 154.217H260V123.783L259.956 122.262C259.055 91.3524 234.869 66.1593 204.022 64H165.435V86.2826C167.999 119.302 192.421 146.482 224.978 152.552L227.019 152.932C231.605 153.787 236.261 154.217 240.926 154.217Z" stroke="black"/>
<path d="M79.0738 165.087H60V195.522L60.0443 197.042C60.9446 227.952 85.1309 253.145 115.978 255.304H154.565V233.022C152.001 200.003 127.579 172.823 95.0217 166.753L92.9813 166.372C88.3948 165.517 83.7393 165.087 79.0738 165.087Z" stroke="black"/>
<path d="M240.926 165.087H260V195.522L259.956 197.042C259.055 227.952 234.869 253.145 204.022 255.304H165.435V233.022C167.999 200.003 192.421 172.823 224.978 166.753L227.019 166.372C231.605 165.517 236.261 165.087 240.926 165.087Z" stroke="black"/>
</svg>
