<svg width="320" height="320" viewBox="0 0 320 320" fill="none" xmlns="http://www.w3.org/2000/svg">
<path d="M255.719 60H63.6697C115.441 114.443 202.074 114.995 254.534 61.2149L255.719 60Z" fill="black"/>
<path d="M255.719 260H63.6697C115.441 205.557 202.074 205.005 254.534 258.785L255.719 260Z" fill="black"/>
<path d="M260 63.6697V255.719C205.557 203.948 205.005 117.315 258.785 64.8548L260 63.6697Z" fill="black"/>
<path d="M60 63.6697V255.719C114.443 203.948 114.995 117.315 61.2149 64.8548L60 63.6697Z" fill="black"/>
<path d="M255.719 60H63.6697C115.441 114.443 202.074 114.995 254.534 61.2149L255.719 60Z" stroke="black"/>
<path d="M255.719 260H63.6697C115.441 205.557 202.074 205.005 254.534 258.785L255.719 260Z" stroke="black"/>
<path d="M260 63.6697V255.719C205.557 203.948 205.005 117.315 258.785 64.8548L260 63.6697Z" stroke="black"/>
<path d="M60 63.6697V255.719C114.443 203.948 114.995 117.315 61.2149 64.8548L60 63.6697Z" stroke="black"/>
</svg>
