<svg width="320" height="320" viewBox="0 0 320 320" fill="none" xmlns="http://www.w3.org/2000/svg">
<path d="M258.864 109.657V154.318L227.048 137.359C206.037 126.159 189.074 108.641 178.555 87.2799L165.682 61.1364H207.888L212.764 61.8289C237.282 65.3107 256.286 85.0278 258.864 109.657Z" fill="black"/>
<path d="M61.1364 210.343V165.682L92.9516 182.641C113.963 193.841 130.926 211.359 141.445 232.72L154.318 258.864H112.112L107.236 258.171C82.7181 254.689 63.7137 234.972 61.1364 210.343Z" fill="black"/>
<path d="M60 114.545C60 84.4208 84.4208 60 114.545 60H160V160H60V114.545Z" fill="black"/>
<path d="M260 205.455C260 235.579 235.579 260 205.455 260H160V160H260V205.455Z" fill="black"/>
</svg>
