<svg width="320" height="320" viewBox="0 0 320 320" fill="none" xmlns="http://www.w3.org/2000/svg">
<path d="M201.805 197.596L161.66 215.114C160.854 215.466 159.937 215.466 159.131 215.114L118.986 197.596C117.748 197.056 116.99 195.789 117.098 194.444L119.58 163.674C120.16 156.482 128.239 152.545 134.261 156.519L153.428 169.17C157.654 171.959 163.136 171.959 167.362 169.17L186.53 156.519C192.552 152.545 200.631 156.482 201.211 163.674L203.692 194.444C203.801 195.789 203.043 197.056 201.805 197.596Z" fill="black"/>
<path d="M98.646 227.032L60 229.895L67.275 125.135C67.6734 119.398 70.6525 114.152 75.375 110.87L100.771 93.2219C106.26 89.4072 113.712 93.7045 113.16 100.366L103.022 222.694C102.83 225.02 100.974 226.86 98.646 227.032Z" fill="black"/>
<path d="M221.354 226.242L260 229.104L252.725 124.345C252.327 118.608 249.348 113.361 244.625 110.079L219.229 92.4314C213.74 88.6167 206.288 92.914 206.84 99.5759L216.978 221.903C217.17 224.229 219.027 226.069 221.354 226.242Z" fill="black"/>
<path d="M201.805 197.596L161.66 215.114C160.854 215.466 159.937 215.466 159.131 215.114L118.986 197.596C117.748 197.056 116.99 195.789 117.098 194.444L119.58 163.674C120.16 156.482 128.239 152.545 134.261 156.519L153.428 169.17C157.654 171.959 163.136 171.959 167.362 169.17L186.53 156.519C192.552 152.545 200.631 156.482 201.211 163.674L203.692 194.444C203.801 195.789 203.043 197.056 201.805 197.596Z" stroke="black"/>
<path d="M98.646 227.032L60 229.895L67.275 125.135C67.6734 119.398 70.6525 114.152 75.375 110.87L100.771 93.2219C106.26 89.4072 113.712 93.7045 113.16 100.366L103.022 222.694C102.83 225.02 100.974 226.86 98.646 227.032Z" stroke="black"/>
<path d="M221.354 226.242L260 229.104L252.725 124.345C252.327 118.608 249.348 113.361 244.625 110.079L219.229 92.4314C213.74 88.6167 206.288 92.914 206.84 99.5759L216.978 221.903C217.17 224.229 219.027 226.069 221.354 226.242Z" stroke="black"/>
</svg>
