<svg width="320" height="320" viewBox="0 0 320 320" fill="none" xmlns="http://www.w3.org/2000/svg">
<path d="M150.773 224.591V259.504H171.222L185.572 257.888C222.062 253.78 251.939 226.999 260 191.175H184.19C165.734 191.175 150.773 206.136 150.773 224.591Z" fill="black"/>
<path d="M90.4239 147.783H60.4988C60.4988 99.8541 99.3528 61 147.282 61H151.771V86.4364C151.771 120.317 124.305 147.783 90.4239 147.783Z" fill="black"/>
<path d="M259.003 134.317H171.222V128.382C171.222 106.002 188.771 87.554 211.122 86.4364C233.744 87.6116 252.722 103.908 257.304 126.092L259.003 134.317Z" fill="black"/>
<path d="M90.4239 175.214H60L61.9742 187.248C67.1373 218.718 90.4439 244.145 121.347 252.022V206.137C121.347 189.059 107.502 175.214 90.4239 175.214Z" fill="black"/>
<path d="M150.773 224.591V259.504H171.222L185.572 257.888C222.062 253.78 251.939 226.999 260 191.175H184.19C165.734 191.175 150.773 206.136 150.773 224.591Z" stroke="black"/>
<path d="M90.4239 147.783H60.4988C60.4988 99.8541 99.3528 61 147.282 61H151.771V86.4364C151.771 120.317 124.305 147.783 90.4239 147.783Z" stroke="black"/>
<path d="M259.003 134.317H171.222V128.382C171.222 106.002 188.771 87.554 211.122 86.4364C233.744 87.6116 252.722 103.908 257.304 126.092L259.003 134.317Z" stroke="black"/>
<path d="M90.4239 175.214H60L61.9742 187.248C67.1373 218.718 90.4439 244.145 121.347 252.022V206.137C121.347 189.059 107.502 175.214 90.4239 175.214Z" stroke="black"/>
</svg>
