<svg width="320" height="320" viewBox="0 0 320 320" fill="none" xmlns="http://www.w3.org/2000/svg">
<path d="M113.364 159.471V161.587L98.9275 162.576C83.9766 163.6 70.729 172.578 64.2384 186.086C58.5288 197.968 58.7825 211.852 64.9223 223.517L68.085 229.526C76.5547 245.619 92.4144 256.5 110.477 258.611L122.358 260V60L108.195 61.8598C85.2382 64.8744 66.6026 81.8957 61.5261 104.486L61.0311 106.689C59.9489 111.505 59.7163 116.473 60.344 121.369C62.8786 141.138 78.848 156.47 98.7047 158.196L113.364 159.471Z" fill="black"/>
<path d="M179.43 159.549V161.352L156.004 164.402C148.886 165.328 142.176 168.248 136.646 172.825C117.564 188.617 118.405 218.137 138.355 232.817L143.721 236.766C151.154 242.235 160.14 245.185 169.368 245.185H188.496V74.8148L171.944 75.3665C162.08 75.6954 152.585 79.2044 144.878 85.3704L133.035 94.8448C122.309 103.425 119.401 118.524 126.172 130.475C135.155 146.33 151.298 156.816 169.435 158.578L179.43 159.549Z" fill="black"/>
<path d="M248.813 159.471V162.116L231.681 162.848C192.767 164.51 179.868 215.783 213.364 235.661C275.018 204.061 275.018 115.939 213.364 84.3386C181.251 103.503 191.587 152.459 228.705 157.007L248.813 159.471Z" fill="black"/>
<path d="M113.364 159.471V161.587L98.9275 162.576C83.9766 163.6 70.729 172.578 64.2384 186.086C58.5288 197.968 58.7825 211.852 64.9223 223.517L68.085 229.526C76.5547 245.619 92.4144 256.5 110.477 258.611L122.358 260V60L108.195 61.8598C85.2382 64.8744 66.6026 81.8957 61.5261 104.486L61.0311 106.689C59.9489 111.505 59.7163 116.473 60.344 121.369C62.8786 141.138 78.848 156.47 98.7047 158.196L113.364 159.471Z" stroke="black"/>
<path d="M179.43 159.549V161.352L156.004 164.402C148.886 165.328 142.176 168.248 136.646 172.825C117.564 188.617 118.405 218.137 138.355 232.817L143.721 236.766C151.154 242.235 160.14 245.185 169.368 245.185H188.496V74.8148L171.944 75.3665C162.08 75.6954 152.585 79.2044 144.878 85.3704L133.035 94.8448C122.309 103.425 119.401 118.524 126.172 130.475C135.155 146.33 151.298 156.816 169.435 158.578L179.43 159.549Z" stroke="black"/>
<path d="M248.813 159.471V162.116L231.681 162.848C192.767 164.51 179.868 215.783 213.364 235.661C275.018 204.061 275.018 115.939 213.364 84.3386C181.251 103.503 191.587 152.459 228.705 157.007L248.813 159.471Z" stroke="black"/>
</svg>
