<svg width="320" height="320" viewBox="0 0 320 320" fill="none" xmlns="http://www.w3.org/2000/svg">
<path d="M157.898 95.2463H198.423L192.935 90.6728C174.826 75.5821 148.672 75.0714 129.988 89.4438C125.004 93.2782 120.781 98.0123 117.539 103.401L89.0148 150.819L87.4937 154.858C81.9121 169.678 91.9215 185.756 107.684 187.288H154.139L143.285 169.922H132.431L160.217 122.598H207.637C209.596 122.598 211.551 122.755 213.485 123.068L215.493 123.392C240.16 127.377 252.988 155.027 240.103 176.434L217.96 214.64C274.134 200.926 273.975 120.931 217.713 107.586C213.55 106.599 209.287 106.1 205.009 106.1H157.725C151.556 106.1 145.937 109.648 143.285 115.218L110.723 169.922L108.423 169.155C104.791 167.945 103.026 163.839 104.645 160.37L133.695 111.701C136.61 106.818 139.697 101.791 144.59 98.8926C148.575 96.5316 153.163 95.2463 157.898 95.2463Z" fill="black"/>
<path d="M162.102 225.494H121.577L127.065 230.068C145.174 245.158 171.328 245.669 190.012 231.297C194.996 227.462 199.219 222.728 202.461 217.339L230.985 169.922L232.506 165.883C238.088 151.063 228.078 134.985 212.316 133.452H165.861L176.715 150.819H187.569L159.783 198.142H112.363C110.404 198.142 108.449 197.985 106.515 197.673L104.507 197.348C79.8402 193.364 67.0117 165.713 79.8975 144.306L102.04 106.1C45.8663 119.814 46.0251 199.809 102.287 213.154C106.45 214.142 110.713 214.64 114.991 214.64H162.275C168.444 214.64 174.063 211.092 176.715 205.523L209.277 150.819L211.577 151.585C215.209 152.796 216.974 156.901 215.355 160.37L186.305 209.039C183.39 213.922 180.303 218.95 175.41 221.848C171.425 224.209 166.837 225.494 162.102 225.494Z" fill="black"/>
<path d="M157.898 95.2463H198.423L192.935 90.6728C174.826 75.5821 148.672 75.0714 129.988 89.4438C125.004 93.2782 120.781 98.0123 117.539 103.401L89.0148 150.819L87.4937 154.858C81.9121 169.678 91.9215 185.756 107.684 187.288H154.139L143.285 169.922H132.431L160.217 122.598H207.637C209.596 122.598 211.551 122.755 213.485 123.068L215.493 123.392C240.16 127.377 252.988 155.027 240.103 176.434L217.96 214.64C274.134 200.926 273.975 120.931 217.713 107.586C213.55 106.599 209.287 106.1 205.009 106.1H157.725C151.556 106.1 145.937 109.648 143.285 115.218L110.723 169.922L108.423 169.155C104.791 167.945 103.026 163.839 104.645 160.37L133.695 111.701C136.61 106.818 139.697 101.791 144.59 98.8926C148.575 96.5316 153.163 95.2463 157.898 95.2463Z" stroke="black"/>
<path d="M162.102 225.494H121.577L127.065 230.068C145.174 245.158 171.328 245.669 190.012 231.297C194.996 227.462 199.219 222.728 202.461 217.339L230.985 169.922L232.506 165.883C238.088 151.063 228.078 134.985 212.316 133.452H165.861L176.715 150.819H187.569L159.783 198.142H112.363C110.404 198.142 108.449 197.985 106.515 197.673L104.507 197.348C79.8402 193.364 67.0117 165.713 79.8975 144.306L102.04 106.1C45.8663 119.814 46.0251 199.809 102.287 213.154C106.45 214.142 110.713 214.64 114.991 214.64H162.275C168.444 214.64 174.063 211.092 176.715 205.523L209.277 150.819L211.577 151.585C215.209 152.796 216.974 156.901 215.355 160.37L186.305 209.039C183.39 213.922 180.303 218.95 175.41 221.848C171.425 224.209 166.837 225.494 162.102 225.494Z" stroke="black"/>
</svg>
