<svg width="320" height="320" viewBox="0 0 320 320" fill="none" xmlns="http://www.w3.org/2000/svg">
<path d="M128.602 244.384H60L60.0003 209.479C60.0004 195.063 65.4249 181.174 75.1956 170.574C120.665 121.244 198.563 121.244 244.033 170.573C253.804 181.174 259.228 195.063 259.228 209.48V244.384H190.626V218.071C190.626 200.944 176.742 187.059 159.614 187.059C142.487 187.059 128.602 200.944 128.602 218.071V244.384Z" fill="black"/>
<path d="M129.374 76H60.7718L60.7721 110.905C60.7723 125.321 66.1967 139.21 75.9674 149.81C121.437 199.14 199.335 199.14 244.804 149.811C254.575 139.21 260 125.321 260 110.904V76H191.398V102.313C191.398 119.44 177.514 133.325 160.386 133.325C143.259 133.325 129.374 119.44 129.374 102.313V76Z" fill="black"/>
<path d="M128.602 244.384H60L60.0003 209.479C60.0004 195.063 65.4249 181.174 75.1956 170.574C120.665 121.244 198.563 121.244 244.033 170.573C253.804 181.174 259.228 195.063 259.228 209.48V244.384H190.626V218.071C190.626 200.944 176.742 187.059 159.614 187.059C142.487 187.059 128.602 200.944 128.602 218.071V244.384Z" stroke="black"/>
<path d="M129.374 76H60.7718L60.7721 110.905C60.7723 125.321 66.1967 139.21 75.9674 149.81C121.437 199.14 199.335 199.14 244.804 149.811C254.575 139.21 260 125.321 260 110.904V76H191.398V102.313C191.398 119.44 177.514 133.325 160.386 133.325C143.259 133.325 129.374 119.44 129.374 102.313V76Z" stroke="black"/>
</svg>
