<svg width="320" height="320" viewBox="0 0 320 320" fill="none" xmlns="http://www.w3.org/2000/svg">
<path d="M247.742 62H70.9677L76.5018 68.8757C86.7539 81.6131 100.699 90.8632 116.42 95.3551C121.376 96.7709 126.457 97.6994 131.593 98.1274L150.794 99.7275C158.635 100.381 166.52 100.316 174.349 99.5328L186.418 98.326C192.016 97.7661 197.542 96.6239 202.903 94.9178C216.224 90.6794 228.22 83.0629 237.723 72.8103L247.742 62Z" fill="black"/>
<path d="M248.387 258.774H71.6129L77.147 251.898C87.3991 239.161 101.344 229.911 117.066 225.419C122.021 224.003 127.102 223.075 132.238 222.647L151.44 221.047C159.281 220.393 167.165 220.458 174.994 221.241L187.063 222.448C192.662 223.008 198.187 224.15 203.549 225.856C216.869 230.095 228.865 237.711 238.368 247.964L248.387 258.774Z" fill="black"/>
<path d="M260 72.9677V249.742L253.124 244.208C240.387 233.956 231.137 220.011 226.645 204.289C225.229 199.334 224.301 194.252 223.873 189.117L222.273 169.915C221.619 162.074 221.684 154.19 222.467 146.361L223.674 134.292C224.234 128.693 225.376 123.168 227.082 117.806C231.321 104.485 238.937 92.4894 249.19 82.987L260 72.9677Z" fill="black"/>
<path d="M60 72.9677V249.742L66.8757 244.208C79.6131 233.956 88.8632 220.011 93.3551 204.289C94.7709 199.334 95.6994 194.252 96.1274 189.117L97.7275 169.915C98.3809 162.074 98.3158 154.19 97.5328 146.361L96.326 134.292C95.7661 128.693 94.6239 123.168 92.9178 117.806C88.6794 104.485 81.0629 92.4894 70.8103 82.987L60 72.9677Z" fill="black"/>
<path d="M247.742 62H70.9677L76.5018 68.8757C86.7539 81.6131 100.699 90.8632 116.42 95.3551C121.376 96.7709 126.457 97.6994 131.593 98.1274L150.794 99.7275C158.635 100.381 166.52 100.316 174.349 99.5328L186.418 98.326C192.016 97.7661 197.542 96.6239 202.903 94.9178C216.224 90.6794 228.22 83.0629 237.723 72.8103L247.742 62Z" stroke="black"/>
<path d="M248.387 258.774H71.6129L77.147 251.898C87.3991 239.161 101.344 229.911 117.066 225.419C122.021 224.003 127.102 223.075 132.238 222.647L151.44 221.047C159.281 220.393 167.165 220.458 174.994 221.241L187.063 222.448C192.662 223.008 198.187 224.15 203.549 225.856C216.869 230.095 228.865 237.711 238.368 247.964L248.387 258.774Z" stroke="black"/>
<path d="M260 72.9677V249.742L253.124 244.208C240.387 233.956 231.137 220.011 226.645 204.289C225.229 199.334 224.301 194.252 223.873 189.117L222.273 169.915C221.619 162.074 221.684 154.19 222.467 146.361L223.674 134.292C224.234 128.693 225.376 123.168 227.082 117.806C231.321 104.485 238.937 92.4894 249.19 82.987L260 72.9677Z" stroke="black"/>
<path d="M60 72.9677V249.742L66.8757 244.208C79.6131 233.956 88.8632 220.011 93.3551 204.289C94.7709 199.334 95.6994 194.252 96.1274 189.117L97.7275 169.915C98.3809 162.074 98.3158 154.19 97.5328 146.361L96.326 134.292C95.7661 128.693 94.6239 123.168 92.9178 117.806C88.6794 104.485 81.0629 92.4894 70.8103 82.987L60 72.9677Z" stroke="black"/>
</svg>
