<svg width="320" height="320" viewBox="0 0 320 320" fill="none" xmlns="http://www.w3.org/2000/svg">
<path d="M185.528 104.025H129.553C104.661 104.025 82.4553 88.3766 74.0829 64.934L72.3208 60H249.679L244.119 63.9714C239.036 67.6026 234.357 71.7693 230.163 76.3999L220.241 87.3556C211.293 97.2352 198.833 103.219 185.528 104.025Z" fill="black"/>
<path d="M136.472 215.975H192.447C217.339 215.975 239.545 231.623 247.917 255.066L249.679 260H72.3208L77.8808 256.029C82.9644 252.397 87.6433 248.231 91.837 243.6L101.759 232.644C110.707 222.765 123.167 216.781 136.472 215.975Z" fill="black"/>
<path d="M105.025 135.472V191.447C105.025 216.339 89.3766 238.545 65.934 246.917L61 248.679V71.3208L64.9714 76.8808C68.6026 81.9644 72.7693 86.6433 77.3999 90.837L88.3556 100.759C98.2352 109.707 104.219 122.167 105.025 135.472Z" fill="black"/>
<path d="M215.717 184.528V128.553C215.717 103.661 231.366 81.4553 254.808 73.0829L259.742 71.3208V248.679L255.771 243.119C252.14 238.036 247.973 233.357 243.342 229.163L232.387 219.241C222.507 210.293 216.523 197.833 215.717 184.528Z" fill="black"/>
<path d="M185.528 104.025H129.553C104.661 104.025 82.4553 88.3766 74.0829 64.934L72.3208 60H249.679L244.119 63.9714C239.036 67.6026 234.357 71.7693 230.163 76.3999L220.241 87.3556C211.293 97.2352 198.833 103.219 185.528 104.025Z" stroke="black"/>
<path d="M136.472 215.975H192.447C217.339 215.975 239.545 231.623 247.917 255.066L249.679 260H72.3208L77.8808 256.029C82.9644 252.397 87.6433 248.231 91.837 243.6L101.759 232.644C110.707 222.765 123.167 216.781 136.472 215.975Z" stroke="black"/>
<path d="M105.025 135.472V191.447C105.025 216.339 89.3766 238.545 65.934 246.917L61 248.679V71.3208L64.9714 76.8808C68.6026 81.9644 72.7693 86.6433 77.3999 90.837L88.3556 100.759C98.2352 109.707 104.219 122.167 105.025 135.472Z" stroke="black"/>
<path d="M215.717 184.528V128.553C215.717 103.661 231.366 81.4553 254.808 73.0829L259.742 71.3208V248.679L255.771 243.119C252.14 238.036 247.973 233.357 243.342 229.163L232.387 219.241C222.507 210.293 216.523 197.833 215.717 184.528Z" stroke="black"/>
</svg>
