<svg width="320" height="320" viewBox="0 0 320 320" fill="none" xmlns="http://www.w3.org/2000/svg">
<path d="M102.359 165.342L60 162.851V256.529H180.69C185.768 256.529 189.885 252.412 189.885 247.333V212.276C189.885 208.467 186.797 205.379 182.989 205.379H119.549C115.513 205.379 111.508 206.085 107.715 207.464C107.459 207.557 107.201 207.332 107.258 207.066L107.378 206.506C108.357 201.936 108.851 197.276 108.851 192.603V172.227C108.851 168.575 106.004 165.557 102.359 165.342Z" fill="black"/>
<path d="M143.445 64H60V146.184L101.836 151.355C106.732 151.96 111.015 148.057 110.865 143.126L110 114.575H144.563C147.287 114.575 149.414 112.219 149.137 109.509L144.588 65.0325C144.528 64.446 144.034 64 143.445 64Z" fill="black"/>
<path d="M260 64.3217L160.863 64.0082C159.487 64.0038 158.415 65.2027 158.572 66.5705L163.448 108.828L163.689 110.031C164.232 112.745 166.45 114.806 169.195 115.149H198.808C200.128 115.149 201.438 114.912 202.674 114.448C204.462 113.778 206.045 112.654 207.267 111.187L208.276 109.977L207.308 140.962C207.203 144.313 209.523 147.254 212.806 147.932L260 157.678V64.3217Z" fill="black"/>
<path d="M260 181.208V256.529H204.828V167.703C204.828 164.862 207.379 162.701 210.181 163.168L250.395 169.87C255.938 170.794 260 175.59 260 181.208Z" fill="black"/>
<path d="M102.359 165.342L60 162.851V256.529H180.69C185.768 256.529 189.885 252.412 189.885 247.333V212.276C189.885 208.467 186.797 205.379 182.989 205.379H119.549C115.513 205.379 111.508 206.085 107.715 207.464C107.459 207.557 107.201 207.332 107.258 207.066L107.378 206.506C108.357 201.936 108.851 197.276 108.851 192.603V172.227C108.851 168.575 106.004 165.557 102.359 165.342Z" stroke="black"/>
<path d="M143.445 64H60V146.184L101.836 151.355C106.732 151.96 111.015 148.057 110.865 143.126L110 114.575H144.563C147.287 114.575 149.414 112.219 149.137 109.509L144.588 65.0325C144.528 64.446 144.034 64 143.445 64Z" stroke="black"/>
<path d="M260 64.3217L160.863 64.0082C159.487 64.0038 158.415 65.2027 158.572 66.5705L163.448 108.828L163.689 110.031C164.232 112.745 166.45 114.806 169.195 115.149H198.808C200.128 115.149 201.438 114.912 202.674 114.448C204.462 113.778 206.045 112.654 207.267 111.187L208.276 109.977L207.308 140.962C207.203 144.313 209.523 147.254 212.806 147.932L260 157.678V64.3217Z" stroke="black"/>
<path d="M260 181.208V256.529H204.828V167.703C204.828 164.862 207.379 162.701 210.181 163.168L250.395 169.87C255.938 170.794 260 175.59 260 181.208Z" stroke="black"/>
</svg>
