<svg width="320" height="320" viewBox="0 0 320 320" fill="none" xmlns="http://www.w3.org/2000/svg">
<path d="M60 179.964L115.09 182.958L113.892 124.275L117.485 64.994L89.3413 63.7964L61.1976 62L62.3952 121.88L60 179.964Z" fill="black"/>
<path d="M259.401 139.844L204.311 136.85L205.509 195.533L201.916 254.814L230.06 256.012L258.204 257.808L257.006 197.928L259.401 139.844Z" fill="black"/>
<path d="M257.006 62L260 117.09L201.317 115.892L142.036 119.485L140.838 91.3413L139.042 63.1976L198.922 64.3952L257.006 62Z" fill="black"/>
<path d="M178.563 257.808L181.557 202.719L122.874 203.916L63.5928 200.323L62.3952 228.467L60.5988 256.611L120.479 255.413L178.563 257.808Z" fill="black"/>
<path d="M60 179.964L115.09 182.958L113.892 124.275L117.485 64.994L89.3413 63.7964L61.1976 62L62.3952 121.88L60 179.964Z" stroke="black"/>
<path d="M259.401 139.844L204.311 136.85L205.509 195.533L201.916 254.814L230.06 256.012L258.204 257.808L257.006 197.928L259.401 139.844Z" stroke="black"/>
<path d="M257.006 62L260 117.09L201.317 115.892L142.036 119.485L140.838 91.3413L139.042 63.1976L198.922 64.3952L257.006 62Z" stroke="black"/>
<path d="M178.563 257.808L181.557 202.719L122.874 203.916L63.5928 200.323L62.3952 228.467L60.5988 256.611L120.479 255.413L178.563 257.808Z" stroke="black"/>
</svg>
