<svg width="320" height="320" viewBox="0 0 320 320" fill="none" xmlns="http://www.w3.org/2000/svg">
<path d="M250.052 65H123.905C117.369 65 112.071 70.2984 112.071 76.8343V101.686C112.071 109.529 118.429 115.888 126.272 115.888H197.521C200.414 115.888 203.207 114.828 205.372 112.908L252.408 71.2068C254.852 69.0396 253.319 65 250.052 65Z" fill="black"/>
<path d="M69.356 254.941H195.503C202.039 254.941 207.337 249.642 207.337 243.107V218.254C207.337 210.411 200.979 204.053 193.136 204.053H121.887C118.994 204.053 116.201 205.113 114.036 207.032L67.0007 248.734C64.5563 250.901 66.0892 254.941 69.356 254.941Z" fill="black"/>
<path d="M60 74.4367V187.757C60 194.186 65.1322 199.439 71.5592 199.588L96.3562 200.165C104.326 200.35 110.888 193.94 110.888 185.968V128.955C110.888 125.887 109.696 122.938 107.564 120.732L62.0345 73.6143C61.295 72.8491 60 73.3725 60 74.4367Z" fill="black"/>
<path d="M260 244.912V131.592C260 125.163 254.868 119.91 248.441 119.761L223.644 119.184C215.674 118.999 209.112 125.409 209.112 133.381V190.394C209.112 193.462 210.304 196.411 212.436 198.617L257.966 245.735C258.705 246.5 260 245.977 260 244.912Z" fill="black"/>
<path d="M250.052 65H123.905C117.369 65 112.071 70.2984 112.071 76.8343V101.686C112.071 109.529 118.429 115.888 126.272 115.888H197.521C200.414 115.888 203.207 114.828 205.372 112.908L252.408 71.2068C254.852 69.0396 253.319 65 250.052 65Z" stroke="black"/>
<path d="M69.356 254.941H195.503C202.039 254.941 207.337 249.642 207.337 243.107V218.254C207.337 210.411 200.979 204.053 193.136 204.053H121.887C118.994 204.053 116.201 205.113 114.036 207.032L67.0007 248.734C64.5563 250.901 66.0892 254.941 69.356 254.941Z" stroke="black"/>
<path d="M60 74.4367V187.757C60 194.186 65.1322 199.439 71.5592 199.588L96.3562 200.165C104.326 200.35 110.888 193.94 110.888 185.968V128.955C110.888 125.887 109.696 122.938 107.564 120.732L62.0345 73.6143C61.295 72.8491 60 73.3725 60 74.4367Z" stroke="black"/>
<path d="M260 244.912V131.592C260 125.163 254.868 119.91 248.441 119.761L223.644 119.184C215.674 118.999 209.112 125.409 209.112 133.381V190.394C209.112 193.462 210.304 196.411 212.436 198.617L257.966 245.735C258.705 246.5 260 245.977 260 244.912Z" stroke="black"/>
</svg>
