<svg width="320" height="320" viewBox="0 0 320 320" fill="none" xmlns="http://www.w3.org/2000/svg">
<path d="M60 231V126.833L110 179.958L60 231Z" fill="black"/>
<path d="M260 192.458V88.2917L210 141.417L260 192.458Z" fill="black"/>
<path d="M260 225.792L124.583 81H65.3321C61.7025 81 59.8084 85.3182 62.2666 87.9886L200.625 238.292H255.833C258.135 238.292 260 236.426 260 234.125V225.792Z" fill="black"/>
<path d="M60 231V126.833L110 179.958L60 231Z" stroke="black"/>
<path d="M260 192.458V88.2917L210 141.417L260 192.458Z" stroke="black"/>
<path d="M260 225.792L124.583 81H65.3321C61.7025 81 59.8084 85.3182 62.2666 87.9886L200.625 238.292H255.833C258.135 238.292 260 236.426 260 234.125V225.792Z" stroke="black"/>
</svg>
