<svg width="320" height="320" viewBox="0 0 320 320" fill="none" xmlns="http://www.w3.org/2000/svg">
<path d="M129.794 108.889L79 60V150.794L160.27 199.048L240.905 150.794V60L190.746 108.889V137.46L160.27 154.603L129.794 137.46V108.889Z" fill="black"/>
<path d="M79 217.46V174.921L160.27 222.54L240.905 174.921V216.825L160.27 260L79 217.46Z" fill="black"/>
<path d="M129.794 108.889L79 60V150.794L160.27 199.048L240.905 150.794V60L190.746 108.889V137.46L160.27 154.603L129.794 137.46V108.889Z" stroke="black"/>
<path d="M79 217.46V174.921L160.27 222.54L240.905 174.921V216.825L160.27 260L79 217.46Z" stroke="black"/>
</svg>
