<svg width="320" height="320" viewBox="0 0 320 320" fill="none" xmlns="http://www.w3.org/2000/svg">
<path d="M235.845 104.535L252.041 121.563C252.633 122.186 252.474 123.202 251.72 123.614L220.313 140.761C219.29 141.319 219.452 142.835 220.569 143.165L259.062 154.554C259.74 154.754 260.137 155.457 259.957 156.141L253.964 178.932C253.779 179.634 253.057 180.052 252.356 179.862L199.615 165.601C199.151 165.476 198.707 165.284 198.298 165.031C183.063 155.625 182.423 133.7 197.083 123.422L198.302 122.568C198.503 122.426 198.715 122.299 198.935 122.188L234.305 104.27C234.821 104.009 235.447 104.117 235.845 104.535Z" fill="black"/>
<path d="M240.067 221.943L227.607 241.867C227.151 242.596 226.128 242.695 225.541 242.067L201.115 215.918C200.319 215.066 198.892 215.6 198.85 216.764L197.403 256.88C197.377 257.587 196.795 258.146 196.087 258.142L172.523 258.011C171.797 258.007 171.212 257.412 171.221 256.686L171.904 202.055C171.91 201.574 171.986 201.097 172.129 200.637C177.446 183.54 198.521 177.463 212.125 189.103L213.256 190.07C213.443 190.23 213.619 190.404 213.781 190.589L239.94 220.386C240.322 220.82 240.373 221.453 240.067 221.943Z" fill="black"/>
<path d="M130.549 257.715L107.66 252.394C106.822 252.2 106.397 251.264 106.801 250.505L123.609 218.915C124.157 217.887 123.189 216.71 122.074 217.048L83.6584 228.696C82.9816 228.901 82.2641 228.531 82.0383 227.861L74.5161 205.529C74.2842 204.841 74.6572 204.095 75.3472 203.868L127.244 186.787C127.701 186.637 128.177 186.553 128.658 186.539C146.555 186.022 159.142 203.984 152.546 220.63L151.998 222.013C151.907 222.242 151.8 222.464 151.678 222.678L131.981 257.09C131.694 257.592 131.112 257.846 130.549 257.715Z" fill="black"/>
<path d="M62.2177 166.684L60.006 143.289C59.925 142.432 60.6777 141.732 61.5257 141.875L96.8147 147.799C97.9635 147.992 98.7729 146.701 98.0989 145.751L74.8712 113.011C74.4619 112.434 74.585 111.637 75.1491 111.21L93.9436 96.9949C94.5229 96.5567 95.3483 96.6741 95.7825 97.2565L128.437 141.059C128.725 141.445 128.955 141.87 129.121 142.321C135.287 159.131 122.242 176.764 104.364 175.786L102.878 175.705C102.632 175.692 102.388 175.661 102.146 175.612L63.2643 167.844C62.6975 167.731 62.2721 167.259 62.2177 166.684Z" fill="black"/>
<path d="M127.953 72.2369L149.167 62.1282C149.944 61.7582 150.86 62.2247 151.017 63.0702L157.567 98.2486C157.78 99.3937 159.27 99.7108 159.931 98.7516L182.708 65.6959C183.109 65.1135 183.9 64.9553 184.495 65.3386L204.298 78.1109C204.909 78.5046 205.082 79.3201 204.684 79.9278L174.753 125.635C174.49 126.038 174.17 126.4 173.802 126.711C160.131 138.272 139.091 132.074 133.872 114.947L133.439 113.524C133.367 113.288 133.312 113.048 133.274 112.804L127.223 73.6182C127.134 73.047 127.431 72.4855 127.953 72.2369Z" fill="black"/>
<path d="M235.845 104.535L252.041 121.563C252.633 122.186 252.474 123.202 251.72 123.614L220.313 140.761C219.29 141.319 219.452 142.835 220.569 143.165L259.062 154.554C259.74 154.754 260.137 155.457 259.957 156.141L253.964 178.932C253.779 179.634 253.057 180.052 252.356 179.862L199.615 165.601C199.151 165.476 198.707 165.284 198.298 165.031C183.063 155.625 182.423 133.7 197.083 123.422L198.302 122.568C198.503 122.426 198.715 122.299 198.935 122.188L234.305 104.27C234.821 104.009 235.447 104.117 235.845 104.535Z" stroke="black"/>
<path d="M240.067 221.943L227.607 241.867C227.151 242.596 226.128 242.695 225.541 242.067L201.115 215.918C200.319 215.066 198.892 215.6 198.85 216.764L197.403 256.88C197.377 257.587 196.795 258.146 196.087 258.142L172.523 258.011C171.797 258.007 171.212 257.412 171.221 256.686L171.904 202.055C171.91 201.574 171.986 201.097 172.129 200.637C177.446 183.54 198.521 177.463 212.125 189.103L213.256 190.07C213.443 190.23 213.619 190.404 213.781 190.589L239.94 220.386C240.322 220.82 240.373 221.453 240.067 221.943Z" stroke="black"/>
<path d="M130.549 257.715L107.66 252.394C106.822 252.2 106.397 251.264 106.801 250.505L123.609 218.915C124.157 217.887 123.189 216.71 122.074 217.048L83.6584 228.696C82.9816 228.901 82.2641 228.531 82.0383 227.861L74.5161 205.529C74.2842 204.841 74.6572 204.095 75.3472 203.868L127.244 186.787C127.701 186.637 128.177 186.553 128.658 186.539C146.555 186.022 159.142 203.984 152.546 220.63L151.998 222.013C151.907 222.242 151.8 222.464 151.678 222.678L131.981 257.09C131.694 257.592 131.112 257.846 130.549 257.715Z" stroke="black"/>
<path d="M62.2177 166.684L60.006 143.289C59.925 142.432 60.6777 141.732 61.5257 141.875L96.8147 147.799C97.9635 147.992 98.7729 146.701 98.0989 145.751L74.8712 113.011C74.4619 112.434 74.585 111.637 75.1491 111.21L93.9436 96.9949C94.5229 96.5567 95.3483 96.6741 95.7825 97.2565L128.437 141.059C128.725 141.445 128.955 141.87 129.121 142.321C135.287 159.131 122.242 176.764 104.364 175.786L102.878 175.705C102.632 175.692 102.388 175.661 102.146 175.612L63.2643 167.844C62.6975 167.731 62.2721 167.259 62.2177 166.684Z" stroke="black"/>
<path d="M127.953 72.2369L149.167 62.1282C149.944 61.7582 150.86 62.2247 151.017 63.0702L157.567 98.2486C157.78 99.3937 159.27 99.7108 159.931 98.7516L182.708 65.6959C183.109 65.1135 183.9 64.9553 184.495 65.3386L204.298 78.1109C204.909 78.5046 205.082 79.3201 204.684 79.9278L174.753 125.635C174.49 126.038 174.17 126.4 173.802 126.711C160.131 138.272 139.091 132.074 133.872 114.947L133.439 113.524C133.367 113.288 133.312 113.048 133.274 112.804L127.223 73.6182C127.134 73.047 127.431 72.4855 127.953 72.2369Z" stroke="black"/>
</svg>
