<svg width="320" height="320" viewBox="0 0 320 320" fill="none" xmlns="http://www.w3.org/2000/svg">
<path d="M115.605 159.17L95.2 141.871C87.4046 135.431 77.2091 132.669 67.2292 134.294L60 135.471L60.7054 135.791C64.1278 137.347 67.3041 139.395 70.1333 141.871L95.4212 165.804C98.4677 168.687 101.765 171.294 105.273 173.592C112.019 178.012 119.471 181.245 127.308 183.151L132.935 184.52C147.432 188.046 162.516 188.421 177.17 185.62L183.445 184.42C188.608 183.433 193.691 182.066 198.653 180.329L212.533 175.471L193.867 160.004L165.689 169.094C152.009 173.506 137.119 172.119 124.489 165.255C121.327 163.537 118.35 161.498 115.605 159.17Z" fill="black"/>
<path d="M204.884 160.719L224.8 177.604C232.595 184.044 242.791 186.806 252.771 185.181L260 184.004L259.295 183.683C255.872 182.128 252.696 180.08 249.867 177.604L224.579 153.671C221.532 150.788 218.235 148.181 214.727 145.882C207.981 141.463 200.529 138.23 192.692 136.324L187.065 134.955C172.568 131.429 157.484 131.054 142.83 133.855L136.555 135.055C131.392 136.042 126.309 137.409 121.347 139.146L107.467 144.004L126.133 159.471L153.003 150.613C166.854 146.046 181.963 147.271 194.898 154.008C198.466 155.866 201.815 158.117 204.884 160.719Z" fill="black"/>
<path d="M115.605 159.17L95.2 141.871C87.4046 135.431 77.2091 132.669 67.2292 134.294L60 135.471L60.7054 135.791C64.1278 137.347 67.3041 139.395 70.1333 141.871L95.4212 165.804C98.4677 168.687 101.765 171.294 105.273 173.592C112.019 178.012 119.471 181.245 127.308 183.151L132.935 184.52C147.432 188.046 162.516 188.421 177.17 185.62L183.445 184.42C188.608 183.433 193.691 182.066 198.653 180.329L212.533 175.471L193.867 160.004L165.689 169.094C152.009 173.506 137.119 172.119 124.489 165.255C121.327 163.537 118.35 161.498 115.605 159.17Z" stroke="black"/>
<path d="M204.884 160.719L224.8 177.604C232.595 184.044 242.791 186.806 252.771 185.181L260 184.004L259.295 183.683C255.872 182.128 252.696 180.08 249.867 177.604L224.579 153.671C221.532 150.788 218.235 148.181 214.727 145.882C207.981 141.463 200.529 138.23 192.692 136.324L187.065 134.955C172.568 131.429 157.484 131.054 142.83 133.855L136.555 135.055C131.392 136.042 126.309 137.409 121.347 139.146L107.467 144.004L126.133 159.471L153.003 150.613C166.854 146.046 181.963 147.271 194.898 154.008C198.466 155.866 201.815 158.117 204.884 160.719Z" stroke="black"/>
</svg>
