<svg width="320" height="320" viewBox="0 0 320 320" fill="none" xmlns="http://www.w3.org/2000/svg">
<path d="M78.2353 120L60 134.706L61.2382 136.335C67.8317 145.011 75.5986 152.728 84.3161 159.267L96.1391 168.134C103.006 173.284 110.416 177.667 118.237 181.205L131.176 187.059L135.725 188.696C151.87 194.509 169.458 194.966 185.882 190L202.941 182.941L177.059 166.471C164.239 170.995 150.156 170.316 137.831 164.579L128.03 160.016C124.642 158.439 121.371 156.621 118.242 154.578L108.573 148.264C98.9874 142.004 90.367 134.378 82.9842 125.628L78.2353 120Z" fill="black"/>
<path d="M241.765 200L260 185.294L258.762 183.665C252.168 174.989 244.401 167.272 235.684 160.733L223.861 151.866C216.994 146.716 209.584 142.333 201.763 138.795L188.824 132.941L184.275 131.304C168.13 125.491 150.542 125.034 134.118 130L117.059 137.059L142.941 153.529C155.761 149.005 169.844 149.684 182.169 155.421L191.97 159.984C195.358 161.561 198.629 163.379 201.758 165.422L211.427 171.736C221.013 177.996 229.633 185.622 237.016 194.372L241.765 200Z" fill="black"/>
<path d="M78.2353 120L60 134.706L61.2382 136.335C67.8317 145.011 75.5986 152.728 84.3161 159.267L96.1391 168.134C103.006 173.284 110.416 177.667 118.237 181.205L131.176 187.059L135.725 188.696C151.87 194.509 169.458 194.966 185.882 190L202.941 182.941L177.059 166.471C164.239 170.995 150.156 170.316 137.831 164.579L128.03 160.016C124.642 158.439 121.371 156.621 118.242 154.578L108.573 148.264C98.9874 142.004 90.367 134.378 82.9842 125.628L78.2353 120Z" stroke="black"/>
<path d="M241.765 200L260 185.294L258.762 183.665C252.168 174.989 244.401 167.272 235.684 160.733L223.861 151.866C216.994 146.716 209.584 142.333 201.763 138.795L188.824 132.941L184.275 131.304C168.13 125.491 150.542 125.034 134.118 130L117.059 137.059L142.941 153.529C155.761 149.005 169.844 149.684 182.169 155.421L191.97 159.984C195.358 161.561 198.629 163.379 201.758 165.422L211.427 171.736C221.013 177.996 229.633 185.622 237.016 194.372L241.765 200Z" stroke="black"/>
</svg>
