<svg width="320" height="320" viewBox="0 0 320 320" fill="none" xmlns="http://www.w3.org/2000/svg">
<path d="M123.881 150.573L139.506 139.858C155.935 128.592 176.779 125.915 195.522 132.662L179.685 137.941C173.537 139.991 167.566 142.537 161.832 145.555L136.418 158.931L136.097 158.574C132.785 154.895 128.576 152.138 123.881 150.573Z" fill="black"/>
<path d="M85.6716 147.588L60 159.528L85.2905 177.269C94.9584 184.051 106.099 188.439 117.795 190.071L118.425 190.159C123.242 190.831 128.118 190.989 132.968 190.629C149.078 189.436 164.248 182.595 175.807 171.311L177.008 170.139C180.975 166.266 185.441 162.94 190.287 160.248L191.855 159.376C193.076 158.698 194.477 158.412 195.866 158.559C201.895 159.193 207.645 161.43 212.518 165.036L234.925 181.617L260 170.274L247.261 160.021C239.466 153.747 230.913 148.478 221.804 144.337L211.896 139.833C210.18 139.054 208.259 138.849 206.418 139.249C199.183 140.822 192.178 143.306 185.57 146.643L138.034 170.646C136.213 171.566 134.137 171.848 132.137 171.448C118.457 168.712 105.588 162.872 94.5204 154.379L85.6716 147.588Z" fill="black"/>
<path d="M123.881 150.573L139.506 139.858C155.935 128.592 176.779 125.915 195.522 132.662L179.685 137.941C173.537 139.991 167.566 142.537 161.832 145.555L136.418 158.931L136.097 158.574C132.785 154.895 128.576 152.138 123.881 150.573Z" stroke="black"/>
<path d="M85.6716 147.588L60 159.528L85.2905 177.269C94.9584 184.051 106.099 188.439 117.795 190.071L118.425 190.159C123.242 190.831 128.118 190.989 132.968 190.629C149.078 189.436 164.248 182.595 175.807 171.311L177.008 170.139C180.975 166.266 185.441 162.94 190.287 160.248L191.855 159.376C193.076 158.698 194.477 158.412 195.866 158.559C201.895 159.193 207.645 161.43 212.518 165.036L234.925 181.617L260 170.274L247.261 160.021C239.466 153.747 230.913 148.478 221.804 144.337L211.896 139.833C210.18 139.054 208.259 138.849 206.418 139.249C199.183 140.822 192.178 143.306 185.57 146.643L138.034 170.646C136.213 171.566 134.137 171.848 132.137 171.448C118.457 168.712 105.588 162.872 94.5204 154.379L85.6716 147.588Z" stroke="black"/>
</svg>
