<svg width="320" height="320" viewBox="0 0 320 320" fill="none" xmlns="http://www.w3.org/2000/svg">
<path d="M71 126.258V61.5849C71 60.1025 72.8561 59.4345 73.8007 60.577L163.929 169.583L139.441 203.489L71 126.258Z" fill="black"/>
<path d="M249.95 126.258V61.5849C249.95 60.1025 248.094 59.4345 247.15 60.577L157.022 169.583L181.51 203.489L249.95 126.258Z" fill="black"/>
<path d="M249.95 222.954V158.281C249.95 156.755 248.06 156.044 247.055 157.192L157.022 260H216.044L249.95 222.954Z" fill="black"/>
<path d="M71.6279 222.954V158.281C71.6279 156.771 73.5065 156.075 74.4899 157.221L162.673 260H103.023L71.6279 222.954Z" fill="black"/>
<path d="M71 126.258V61.5849C71 60.1025 72.8561 59.4345 73.8007 60.577L163.929 169.583L139.441 203.489L71 126.258Z" stroke="black"/>
<path d="M249.95 126.258V61.5849C249.95 60.1025 248.094 59.4345 247.15 60.577L157.022 169.583L181.51 203.489L249.95 126.258Z" stroke="black"/>
<path d="M249.95 222.954V158.281C249.95 156.755 248.06 156.044 247.055 157.192L157.022 260H216.044L249.95 222.954Z" stroke="black"/>
<path d="M71.6279 222.954V158.281C71.6279 156.771 73.5065 156.075 74.4899 157.221L162.673 260H103.023L71.6279 222.954Z" stroke="black"/>
</svg>
