<svg width="320" height="320" viewBox="0 0 320 320" fill="none" xmlns="http://www.w3.org/2000/svg">
<path d="M75.4823 149.319L60 166.403L73.9022 174.927C105.783 194.477 145.034 197.61 179.554 183.472C180.562 183.059 180.76 181.727 179.927 181.025C173.295 175.441 165.976 170.727 158.148 166.999L157.964 166.912C157.271 166.582 156.487 166.491 155.736 166.653C132.665 171.652 108.553 167.039 88.9564 153.877L81.1402 148.627C79.3442 147.421 76.9351 147.715 75.4823 149.319Z" fill="black"/>
<path d="M112.55 152.328L97.2671 135.347L103.337 133.17C120.919 126.868 139.862 125.36 158.22 128.802C166.007 130.262 173.604 132.597 180.867 135.763L194.161 141.558L222.733 158.328L260 176.962L234.025 181.457C229.831 182.183 225.555 182.304 221.327 181.816C214.889 181.073 208.69 178.933 203.164 175.547L186.587 165.387C165.542 152.488 140.323 148.23 116.209 153.505C114.866 153.799 113.469 153.349 112.55 152.328Z" fill="black"/>
<path d="M75.4823 149.319L60 166.403L73.9022 174.927C105.783 194.477 145.034 197.61 179.554 183.472C180.562 183.059 180.76 181.727 179.927 181.025C173.295 175.441 165.976 170.727 158.148 166.999L157.964 166.912C157.271 166.582 156.487 166.491 155.736 166.653C132.665 171.652 108.553 167.039 88.9564 153.877L81.1402 148.627C79.3442 147.421 76.9351 147.715 75.4823 149.319Z" stroke="black"/>
<path d="M112.55 152.328L97.2671 135.347L103.337 133.17C120.919 126.868 139.862 125.36 158.22 128.802C166.007 130.262 173.604 132.597 180.867 135.763L194.161 141.558L222.733 158.328L260 176.962L234.025 181.457C229.831 182.183 225.555 182.304 221.327 181.816C214.889 181.073 208.69 178.933 203.164 175.547L186.587 165.387C165.542 152.488 140.323 148.23 116.209 153.505C114.866 153.799 113.469 153.349 112.55 152.328Z" stroke="black"/>
</svg>
