<svg width="320" height="320" viewBox="0 0 320 320" fill="none" xmlns="http://www.w3.org/2000/svg">
<path d="M260 188.92H163.727L150.91 187.815C114.244 184.654 81.1148 164.79 61.0448 134.028C60.5856 133.324 61.0941 132.398 61.9346 132.398C73.2995 132.398 84.5579 134.065 95.3601 137.308C110.151 141.749 126.078 143.542 140.524 138.083C187.537 120.316 240.202 142.726 260 188.92Z" fill="black"/>
<path d="M124.596 150.411L137.801 145.198C144.607 142.512 152.011 141.704 159.237 142.86C162.221 143.337 165.143 144.145 167.948 145.267L169.585 145.922C173.944 147.665 178.07 149.944 181.866 152.705L223.975 183.33H194.8C187.389 183.33 180.032 182.07 173.043 179.603L162.404 174.739C155.022 171.365 147.989 167.275 141.405 162.528L124.596 150.411Z" fill="white"/>
<path d="M260 188.92H163.727L150.91 187.815C114.244 184.654 81.1148 164.79 61.0448 134.028C60.5856 133.324 61.0941 132.398 61.9346 132.398C73.2995 132.398 84.5579 134.065 95.3601 137.308C110.151 141.749 126.078 143.542 140.524 138.083C187.537 120.316 240.202 142.726 260 188.92Z" stroke="white"/>
<path d="M124.596 150.411L137.801 145.198C144.607 142.512 152.011 141.704 159.237 142.86C162.221 143.337 165.143 144.145 167.948 145.267L169.585 145.922C173.944 147.665 178.07 149.944 181.866 152.705L223.975 183.33H194.8C187.389 183.33 180.032 182.07 173.043 179.603L162.404 174.739C155.022 171.365 147.989 167.275 141.405 162.528L124.596 150.411Z" stroke="white"/>
</svg>
