<svg width="320" height="320" viewBox="0 0 320 320" fill="none" xmlns="http://www.w3.org/2000/svg">
<path d="M260 127.937V98.8228C260 90.0841 252.916 83 244.177 83H219.494L218.493 83.04C171.664 84.9132 131.079 116.077 117.164 160.831C117.033 161.254 117.034 161.708 117.169 162.13C131.082 205.749 170.96 235.877 216.722 237.342L219.494 237.43H244.177C252.916 237.43 260 230.346 260 221.608V194.392C260 187.052 254.049 181.101 246.709 181.101H146.076L135.964 162.661C135.559 161.923 135.547 161.033 135.933 160.284L146.076 140.595H247.342C254.333 140.595 260 134.928 260 127.937Z" fill="black"/>
<path d="M78.3544 83.6329H154.304L153.535 84.0701C133.044 95.722 116.714 113.496 106.835 134.899C96.2418 119.823 80.4416 109.204 62.4816 105.088L60 104.519V101.987C60 91.8505 68.2176 83.6329 78.3544 83.6329Z" fill="black"/>
<path d="M78.3544 237.43H154.304L153.535 236.993C133.044 225.341 116.714 207.567 106.835 186.165C96.2418 201.24 80.4416 211.86 62.4816 215.976L60 216.544V219.076C60 229.213 68.2176 237.43 78.3544 237.43Z" fill="black"/>
<path d="M260 127.937V98.8228C260 90.0841 252.916 83 244.177 83H219.494L218.493 83.04C171.664 84.9132 131.079 116.077 117.164 160.831C117.033 161.254 117.034 161.708 117.169 162.13C131.082 205.749 170.96 235.877 216.722 237.342L219.494 237.43H244.177C252.916 237.43 260 230.346 260 221.608V194.392C260 187.052 254.049 181.101 246.709 181.101H146.076L135.964 162.661C135.559 161.923 135.547 161.033 135.933 160.284L146.076 140.595H247.342C254.333 140.595 260 134.928 260 127.937Z" stroke="black"/>
<path d="M78.3544 83.6329H154.304L153.535 84.0701C133.044 95.722 116.714 113.496 106.835 134.899C96.2418 119.823 80.4416 109.204 62.4816 105.088L60 104.519V101.987C60 91.8505 68.2176 83.6329 78.3544 83.6329Z" stroke="black"/>
<path d="M78.3544 237.43H154.304L153.535 236.993C133.044 225.341 116.714 207.567 106.835 186.165C96.2418 201.24 80.4416 211.86 62.4816 215.976L60 216.544V219.076C60 229.213 68.2176 237.43 78.3544 237.43Z" stroke="black"/>
</svg>
