<svg width="320" height="320" viewBox="0 0 320 320" fill="none" xmlns="http://www.w3.org/2000/svg">
<path d="M107.678 164.972L97.1517 174.26L159.69 238.037L222.848 174.26L212.322 164.972H186.316L159.69 192.836L132.446 164.972H107.678Z" fill="black"/>
<path d="M106.44 164.972H60L132.446 82L159.69 109.864L106.44 164.972Z" fill="black"/>
<path d="M213.56 164.972H260L187.554 82L160.31 109.864L213.56 164.972Z" fill="black"/>
<path d="M107.678 164.972L97.1517 174.26L159.69 238.037L222.848 174.26L212.322 164.972H186.316L159.69 192.836L132.446 164.972H107.678Z" stroke="black"/>
<path d="M106.44 164.972H60L132.446 82L159.69 109.864L106.44 164.972Z" stroke="black"/>
<path d="M213.56 164.972H260L187.554 82L160.31 109.864L213.56 164.972Z" stroke="black"/>
</svg>
