<svg width="320" height="320" viewBox="0 0 320 320" fill="none" xmlns="http://www.w3.org/2000/svg">
<path d="M128.685 60.2923C118.143 61.2938 104.395 66.4614 94.8949 72.991C82.5492 81.5236 74.0115 91.3381 67.8788 104.037C61.8262 116.615 59.2609 129.675 60.1828 143.215C61.4655 162.122 69.2416 175.182 81.2666 178.667C83.0302 179.188 84.5534 179.308 87.4394 179.188C92.2093 178.947 95.7366 177.625 99.4243 174.741C101.99 172.738 129.968 145.258 129.968 144.737C129.968 144.617 129.286 144.256 128.485 143.976C122.793 142.173 118.664 136.565 118.664 130.716C118.664 127.792 119.306 125.869 121.149 123.385C122.953 120.942 125.078 119.42 127.763 118.578C130.85 117.657 131.29 117.897 128.324 118.899C124.356 120.301 122.031 122.184 120.268 125.589C118.945 128.192 118.945 133.4 120.308 136.004C121.791 138.808 122.793 139.97 125.037 141.452C128.244 143.575 131.29 144.537 134.176 144.256C137.784 143.976 139.307 143.375 141.752 141.372C145.801 138.087 147.203 135.203 147.203 130.195C147.203 126.79 146.402 124.868 143.957 122.424C141.672 120.141 138.866 118.899 134.537 118.218C131.972 117.817 131.451 117.657 132.653 117.617C138.265 117.497 144.478 120.701 146.642 124.827C147.003 125.589 147.404 125.909 147.725 125.709C152.134 123.105 163.517 112.489 170.893 104.117C177.506 96.6259 179.23 90.4167 177.065 82.1245C175.703 76.9569 171.654 72.0697 165.121 67.7433C160.591 64.7389 156.302 62.9362 149.809 61.3339C144.799 60.092 135.539 59.6514 128.685 60.2923Z" fill="black"/>
<path d="M216.486 91.6165C213.259 92.7805 209.75 94.9482 207.491 97.2363C205.434 99.2835 203.014 103.779 202.409 106.669C202.126 108.115 201.965 118.712 201.965 140.067C201.965 174.549 201.884 175.673 199.464 181.894C196.197 190.404 189.017 196.947 180.587 199.115C174.779 200.6 171.149 200.761 137.831 201.042C105.078 201.323 104.957 201.323 102.416 202.206C99.2699 203.33 97.0515 204.735 94.7523 207.103C91.2834 210.636 89.912 213.927 89.549 219.547C89.3876 222.477 89.5086 223.401 90.396 226.17C92.6548 233.195 98.8666 240.581 106.732 245.519C121.213 254.671 136.177 259.287 153.401 259.929C172.197 260.652 190.711 255.835 208.016 245.639C219.874 238.654 232.741 226.853 240.365 215.974C250.288 201.885 255.894 188.397 258.839 171.779C260.17 164.192 260.412 149.902 259.282 142.476C258.839 139.505 258.355 136.495 258.234 135.852C257.548 132.561 256.015 126.78 255.209 124.613C254.765 123.288 254.2 121.482 253.958 120.639C253.756 119.756 253.313 118.591 252.99 118.029C252.667 117.468 251.619 115.26 250.61 113.172C247.061 105.626 241.01 97.9588 236.291 94.9482C231.531 91.8974 228.627 90.9742 223.545 90.8136C219.673 90.6932 218.785 90.7735 216.486 91.6165Z" fill="black"/>
<circle cx="133.076" cy="131.795" r="14.3846" fill="black" stroke="white" stroke-width="2"/>
</svg>
