<svg width="320" height="320" viewBox="0 0 320 320" fill="none" xmlns="http://www.w3.org/2000/svg">
<path d="M179.714 244.102L255.057 130.748C275.899 88.8925 226.429 47.2857 188.765 74.9925L160.03 96.1307L131.06 74.9009C93.3764 47.2854 44.0407 88.9954 65.0028 130.748L140.346 244.102C149.568 258.411 170.492 258.411 179.714 244.102Z" fill="black"/>
<path d="M143.231 125.376L118.625 169.437L86.0445 119.888C75.7686 99.8173 99.9665 79.822 117.74 93.6968L140.406 111.391C144.668 114.718 145.867 120.655 143.231 125.376Z" fill="white"/>
<path d="M176.829 125.376L201.435 169.437L234.015 119.888C244.291 99.8173 220.093 79.822 202.32 93.6968L179.654 111.391C175.392 114.718 174.193 120.655 176.829 125.376Z" fill="white"/>
<path d="M185.823 191.837L160.03 144.323L134.237 191.837L160.03 230.526L185.823 191.837Z" fill="white"/>
<path d="M170.89 188.443C170.89 194.441 166.028 199.303 160.03 199.303C154.032 199.303 149.17 194.441 149.17 188.443C149.17 182.445 154.032 177.583 160.03 177.583C166.028 177.583 170.89 182.445 170.89 188.443Z" fill="black"/>
</svg>
