<svg width="320" height="320" viewBox="0 0 320 320" fill="none" xmlns="http://www.w3.org/2000/svg">
<path d="M110.25 165.625L89 60L118.866 81.3781C136.866 94.2621 145.767 116.411 141.687 138.167C141.165 140.955 139.621 143.447 137.357 145.156L110.25 165.625Z" fill="black"/>
<path d="M175.25 225.625L123.375 260L185.875 117.5L230.204 86.5306C230.75 86.1489 231.5 86.5398 231.5 87.2063V89.9506C231.5 95.7884 230.686 101.598 229.083 107.211C228.196 110.316 227.07 113.347 225.717 116.279L175.25 225.625Z" fill="black"/>
<path d="M110.25 165.625L89 60L118.866 81.3781C136.866 94.2621 145.767 116.411 141.687 138.167C141.165 140.955 139.621 143.447 137.357 145.156L110.25 165.625Z" stroke="black"/>
<path d="M175.25 225.625L123.375 260L185.875 117.5L230.204 86.5306C230.75 86.1489 231.5 86.5398 231.5 87.2063V89.9506C231.5 95.7884 230.686 101.598 229.083 107.211C228.196 110.316 227.07 113.347 225.717 116.279L175.25 225.625Z" stroke="black"/>
</svg>
