<svg width="320" height="320" viewBox="0 0 320 320" fill="none" xmlns="http://www.w3.org/2000/svg">
<path d="M242.202 75.5642L232.864 82.5681L181.502 189.183L242.202 146.381V75.5642Z" fill="black"/>
<path d="M221.191 91.1284L179.167 121.479L136.366 219.533L172.163 195.409L221.191 91.1284Z" fill="black"/>
<path d="M81.8911 191.518V60L107.572 77.8988L123.914 159.611L81.8911 191.518Z" fill="black"/>
<path d="M128.584 155.72L114.576 82.5681L170.607 123.813L128.584 155.72Z" fill="black"/>
<path d="M105.237 181.401L81.8911 198.521V233.541L105.237 181.401Z" fill="black"/>
<path d="M113.798 175.175L78 260L128.584 224.981L167.494 133.152L113.798 175.175Z" fill="black"/>
<path d="M242.202 75.5642L232.864 82.5681L181.502 189.183L242.202 146.381V75.5642Z" stroke="black"/>
<path d="M221.191 91.1284L179.167 121.479L136.366 219.533L172.163 195.409L221.191 91.1284Z" stroke="black"/>
<path d="M81.8911 191.518V60L107.572 77.8988L123.914 159.611L81.8911 191.518Z" stroke="black"/>
<path d="M128.584 155.72L114.576 82.5681L170.607 123.813L128.584 155.72Z" stroke="black"/>
<path d="M105.237 181.401L81.8911 198.521V233.541L105.237 181.401Z" stroke="black"/>
<path d="M113.798 175.175L78 260L128.584 224.981L167.494 133.152L113.798 175.175Z" stroke="black"/>
</svg>
