<svg width="320" height="320" viewBox="0 0 320 320" fill="none" xmlns="http://www.w3.org/2000/svg">
<path d="M61 260V162.128H158.872C158.872 216.181 115.053 260 61 260Z" fill="black"/>
<path d="M259.582 60V157.872H161.709C161.709 103.819 205.528 60 259.582 60Z" fill="black"/>
<path d="M259.582 226.667C259.582 244.293 245.293 258.582 227.667 258.582C210.041 258.582 195.752 244.293 195.752 226.667C195.752 209.041 210.041 194.752 227.667 194.752C245.293 194.752 259.582 209.041 259.582 226.667Z" fill="black"/>
<path d="M124.83 91.9149C124.83 109.541 110.541 123.83 92.9149 123.83C75.2888 123.83 61 109.541 61 91.9149C61 74.2888 75.2888 60 92.9149 60C110.541 60 124.83 74.2888 124.83 91.9149Z" fill="black"/>
<path d="M61 260V162.128H158.872C158.872 216.181 115.053 260 61 260Z" stroke="black"/>
<path d="M259.582 60V157.872H161.709C161.709 103.819 205.528 60 259.582 60Z" stroke="black"/>
<path d="M259.582 226.667C259.582 244.293 245.293 258.582 227.667 258.582C210.041 258.582 195.752 244.293 195.752 226.667C195.752 209.041 210.041 194.752 227.667 194.752C245.293 194.752 259.582 209.041 259.582 226.667Z" stroke="black"/>
<path d="M124.83 91.9149C124.83 109.541 110.541 123.83 92.9149 123.83C75.2888 123.83 61 109.541 61 91.9149C61 74.2888 75.2888 60 92.9149 60C110.541 60 124.83 74.2888 124.83 91.9149Z" stroke="black"/>
</svg>
