<svg width="35" height="36" viewBox="0 0 35 36" fill="none" xmlns="http://www.w3.org/2000/svg">
<path d="M1.72344 4.12955L1.21109 3.8991C1.08226 3.84115 0.953581 3.98079 1.01644 4.11032C3.13286 8.47089 3.13286 13.6035 1.01644 17.9641C0.953581 18.0936 1.08226 18.2333 1.21109 18.1753L1.72344 17.9449C5.86159 16.0835 10.5803 16.1646 14.6559 18.167C14.7846 18.2302 14.9202 18.0943 14.8659 17.9586C13.1055 13.5543 13.1055 8.52011 14.8659 4.11583C14.9202 3.98007 14.7846 3.84421 14.6559 3.90741C10.5803 5.90983 5.86159 5.99088 1.72344 4.12955Z" fill="#121212"/>
<path d="M1.72344 20.9407L1.21109 20.7102C1.08226 20.6523 0.953581 20.7919 1.01644 20.9215C3.13286 25.282 3.13286 30.4147 1.01644 34.7752C0.953581 34.9048 1.08226 35.0444 1.21109 34.9865L1.72344 34.756C5.86159 32.8947 10.5803 32.9757 14.6559 34.9781C14.7846 35.0413 14.9202 34.9055 14.8659 34.7697C13.1055 30.3654 13.1055 25.3312 14.8659 20.927C14.9202 20.7912 14.7846 20.6553 14.6559 20.7185C10.5803 22.721 5.86159 22.802 1.72344 20.9407Z" fill="#121212"/>
<path d="M18.0425 20.9407L17.5302 20.7103C17.4013 20.6523 17.2727 20.792 17.3355 20.9215C19.4519 25.2821 19.4519 30.4147 17.3355 34.7753C17.2727 34.9048 17.4013 35.0445 17.5302 34.9865L18.0425 34.7561C22.1807 32.8947 26.8994 32.9758 30.975 34.9782C31.1036 35.0414 31.2392 34.9055 31.185 34.7698C29.4246 30.3655 29.4246 25.3313 31.185 20.927C31.2392 20.7913 31.1036 20.6554 30.975 20.7186C26.8994 22.721 22.1807 22.8021 18.0425 20.9407Z" fill="#121212"/>
<path d="M24.6004 1.63452L24.3963 1.09834C24.345 0.963528 24.1582 0.968532 24.1137 1.10591C22.6172 5.731 19.0942 9.36032 14.6046 10.902C14.4713 10.9478 14.4664 11.1403 14.5973 11.1932L15.1177 11.4034C19.3215 13.1017 22.6025 16.5963 24.1099 20.9811C24.1575 21.1195 24.3466 21.1222 24.4014 20.9867C26.1797 16.5901 29.6351 13.0304 33.903 11.1984C34.0345 11.1419 34.0319 10.9471 33.8976 10.8981C29.6412 9.34514 26.249 5.96511 24.6004 1.63452Z" fill="#121212"/>
<path d="M1.72344 4.12955L1.21109 3.8991C1.08226 3.84115 0.953581 3.98079 1.01644 4.11032C3.13286 8.47089 3.13286 13.6035 1.01644 17.9641C0.953581 18.0936 1.08226 18.2333 1.21109 18.1753L1.72344 17.9449C5.86159 16.0835 10.5803 16.1646 14.6559 18.167C14.7846 18.2302 14.9202 18.0943 14.8659 17.9586C13.1055 13.5543 13.1055 8.52011 14.8659 4.11583C14.9202 3.98007 14.7846 3.84421 14.6559 3.90741C10.5803 5.90983 5.86159 5.99088 1.72344 4.12955Z" stroke="#121212"/>
<path d="M1.72344 20.9407L1.21109 20.7102C1.08226 20.6523 0.953581 20.7919 1.01644 20.9215C3.13286 25.282 3.13286 30.4147 1.01644 34.7752C0.953581 34.9048 1.08226 35.0444 1.21109 34.9865L1.72344 34.756C5.86159 32.8947 10.5803 32.9757 14.6559 34.9781C14.7846 35.0413 14.9202 34.9055 14.8659 34.7697C13.1055 30.3654 13.1055 25.3312 14.8659 20.927C14.9202 20.7912 14.7846 20.6553 14.6559 20.7185C10.5803 22.721 5.86159 22.802 1.72344 20.9407Z" stroke="#121212"/>
<path d="M18.0425 20.9407L17.5302 20.7103C17.4013 20.6523 17.2727 20.792 17.3355 20.9215C19.4519 25.2821 19.4519 30.4147 17.3355 34.7753C17.2727 34.9048 17.4013 35.0445 17.5302 34.9865L18.0425 34.7561C22.1807 32.8947 26.8994 32.9758 30.975 34.9782C31.1036 35.0414 31.2392 34.9055 31.185 34.7698C29.4246 30.3655 29.4246 25.3313 31.185 20.927C31.2392 20.7913 31.1036 20.6554 30.975 20.7186C26.8994 22.721 22.1807 22.8021 18.0425 20.9407Z" stroke="#121212"/>
<path d="M24.6004 1.63452L24.3963 1.09834C24.345 0.963528 24.1582 0.968532 24.1137 1.10591C22.6172 5.731 19.0942 9.36032 14.6046 10.902C14.4713 10.9478 14.4664 11.1403 14.5973 11.1932L15.1177 11.4034C19.3215 13.1017 22.6025 16.5963 24.1099 20.9811C24.1575 21.1195 24.3466 21.1222 24.4014 20.9867C26.1797 16.5901 29.6351 13.0304 33.903 11.1984C34.0345 11.1419 34.0319 10.9471 33.8976 10.8981C29.6412 9.34514 26.249 5.96511 24.6004 1.63452Z" stroke="#121212"/>
</svg>
